<svg width="296" height="77" viewBox="0 0 296 77" fill="none" xmlns="http://www.w3.org/2000/svg">
<path d="M3.61329 7.22103C4.02399 7.22103 4.48477 7.57664 5.06075 8.32291C11.5668 5.38293 16.41 3.90541 19.5754 3.90541C21.103 3.90541 22.4302 4.22594 23.5671 4.83697C24.694 5.46303 25.27 6.19929 25.27 7.05073C25.27 7.60667 24.9845 8.88885 24.4186 10.8672C24.1832 11.7186 23.9377 12.7103 23.6572 13.8422C23.3617 15.1344 23.0813 16.5318 22.8058 18.0043C23.1964 17.5485 23.6272 17.0977 24.0779 16.647C24.7541 15.9558 25.1749 15.5001 25.3502 15.2897L25.6056 14.9491C25.6556 15.0693 25.6957 15.2346 25.6957 15.46C25.6957 16.2513 25.0797 17.4984 23.8176 19.1913L20.0011 24.3701C19.0895 25.6222 17.9976 26.724 16.6954 27.6756L14.5719 29.4687C12.0776 31.5021 10.3847 32.5189 9.4732 32.5189C9.2979 32.5189 8.76705 32.3185 7.86051 31.9278L7.60511 36.4155L7.09421 51.5461L7.18431 67.2527C7.18431 68.8904 6.89884 70.0975 6.33288 70.9039C6.21768 70.964 6.10753 70.984 5.99234 70.984L5.91217 71.0691L5.82207 71.0691C5.19601 71.0691 4.23937 70.1075 2.92715 68.1843C1.52979 65.9906 0.813588 63.8619 0.813588 61.8335C0.813588 61.0972 1.07901 59.4945 1.56483 57.0604C1.90541 55.032 2.17089 52.2823 2.33617 48.8214L2.857 32.013L3.02231 27.2649L3.2677 7.31118C3.38791 7.24607 3.49309 7.22103 3.61329 7.22103ZM11.3414 13.8372C13.1494 12.8105 14.2563 12.2245 14.657 12.0642C14.9876 11.949 15.6136 11.8839 16.5252 11.8839L16.6053 11.8839L16.6053 11.9641L16.6954 11.9641L16.7856 11.9641L17.041 11.9641L16.9509 7.99234C16.6103 7.92723 16.2096 7.89215 15.7589 7.89215L15.6788 7.89215L15.5886 7.89215L15.4984 7.89215L15.4183 7.89215L15.3181 7.89215L15.248 7.99234L15.1479 7.99234L15.0677 7.99234L14.9775 7.99234L12.0025 9.34461C11.3264 9.6902 10.0542 9.8505 8.18608 9.85049L6.40802 9.85049C7.02406 10.8722 7.50488 11.7537 7.84546 12.4899C8.08086 12.9407 8.41143 13.707 8.87221 14.7738L8.87221 14.869C10.1193 14.4032 10.9507 14.0626 11.3414 13.8372ZM11.682 17.824C11.4466 17.824 11.2212 17.8591 10.9958 17.9192C10.535 17.9793 10.2446 18.0043 10.0643 18.0043L9.97408 18.0043L9.89391 18.0043L9.70866 18.0043L9.6385 18.0043C9.56839 17.9492 9.52329 17.9192 9.46319 17.9192L9.28795 17.9192L9.20778 17.9192L9.03247 17.9192L8.95238 17.9192L8.87221 17.9192L8.35131 24.8859C9.77371 23.0578 10.8806 20.7139 11.682 17.824ZM15.829 23.2632L16.6905 16.7271C13.46 20.6838 11.0159 23.9694 9.39311 26.5688C11.9975 25.502 14.1362 24.3901 15.829 23.2632ZM12.9441 63.932C15.0477 62.8051 16.6904 61.533 17.8724 60.1106C19.1145 58.6381 20.8174 55.9185 22.9711 51.9568C20.537 53.1488 18.774 53.7348 17.6972 53.7348C16.405 53.7348 15.0777 52.4025 13.7154 49.738C14.106 49.8081 14.5368 49.8332 14.9876 49.8332C18.0979 49.8332 21.4936 48.4508 25.1698 45.6762C25.4052 45.4508 25.7759 45.1653 26.2767 44.8297L26.0212 43.3021C23.8125 42.8414 22.1747 41.7344 21.1029 39.9815L21.3583 39.6409C26.2767 37.7277 29.988 34.0965 32.4922 28.7825C30.7292 29.4637 29.0413 30.9011 27.3936 33.1048C25.856 35.2034 24.6138 36.2502 23.6572 36.2502C23.0312 36.2502 22.4051 35.7994 21.789 34.8929C21.2131 34.0465 20.9376 33.1299 20.9376 32.1683C20.9376 30.3552 21.2883 28.8927 22.0345 27.7558C22.1998 27.4753 22.375 27.3351 22.5453 27.3351C22.7807 27.3351 22.916 27.4152 22.9761 27.5855L23.5721 28.9478C23.8676 29.5038 24.4236 29.7942 25.275 29.7942C26.6824 29.7942 28.2099 29.3084 29.8527 28.3468C32.6775 26.7641 34.9013 25.9678 36.4739 25.9678C37.2052 25.9678 37.9114 26.2232 38.5975 26.7391C39.6142 27.4102 40.1251 28.0112 40.1251 28.5221C40.1251 28.7425 39.8797 29.1682 39.3538 29.7893L38.257 31.0614C37.2403 32.3636 35.4322 34.1516 32.8278 36.4004C33.8445 36.2952 34.5507 36.2402 34.9414 36.2402C37.095 36.2402 38.1768 36.8412 38.1768 38.0182C38.1768 38.6993 36.3587 40.2069 32.7376 42.5208L32.6475 42.5208L32.6475 42.6059L32.5573 42.6059L32.5573 42.6911L32.4872 42.6911L32.4071 42.7762L32.3069 42.7762L32.3069 42.8564L32.2167 42.8564L32.1266 42.9566C32.4772 43.4073 32.6625 43.9432 32.7226 44.5643C36.0583 43.5475 38.4473 43.0366 39.8647 43.0366C41.217 43.0366 42.419 43.3772 43.4257 44.0534C44.3823 44.6794 44.8632 45.4408 44.8632 46.3473C44.8632 46.9734 44.3823 47.2788 43.4257 47.2788L37.4105 47.6144C36.9497 47.6795 36.2937 47.7897 35.4422 47.955C34.4255 48.2455 33.0631 48.6061 31.3653 49.0669C30.8544 50.3641 30.2885 51.6012 29.6824 52.7982C34.3103 52.9685 37.9264 54.0202 40.5408 55.9335C43.4257 58.0921 44.8632 60.5062 44.8632 63.1607C44.8632 64.9187 44.157 65.7802 42.7396 65.7802C41.9583 65.7802 41.1819 65.5598 40.4407 65.104L36.8796 62.8101C36.3337 62.4144 34.9013 61.9937 32.6324 61.538L32.5423 61.1924L32.7176 61.0321L36.6192 60.6916C33.9597 57.977 31.2701 55.9635 28.5605 54.6713C26.467 58.2925 24.2833 60.7717 22.0145 62.139C19.8058 63.4963 16.7806 64.2325 12.9291 64.3327L12.9291 63.932L12.9441 63.932ZM41.3923 4.41126L41.4924 4.41126L41.5726 4.41126L49.4559 2.11738C51.1688 1.6015 52.9769 1.36109 54.9051 1.36109C57.0087 1.36109 58.8969 1.86198 60.5898 2.89373C62.2326 3.84534 63.054 4.98223 63.054 6.28444C63.054 6.44972 62.7985 8.06747 62.2826 11.1277C62.2326 11.4632 62.1474 11.9991 62.0373 12.7404C61.862 13.4816 61.7517 14.0175 61.6966 14.3581L61.6966 14.4382L61.6966 14.5234L61.6966 14.6887C61.6365 14.9191 61.6165 15.1094 61.6165 15.2897C61.6165 15.6804 61.5764 16.081 61.5264 16.4717C61.4663 16.9776 61.4262 17.4934 61.4262 18.0043L60.8402 29.8844L60.8402 31.417L60.8402 35.2435C60.9003 36.3654 60.9654 37.5023 61.0055 38.6342C61.0055 39.7661 61.0355 40.883 61.0956 41.9498C61.2108 44.4991 61.311 46.768 61.4262 48.7413C61.4863 49.4776 61.5264 50.1788 61.5264 50.8649C61.6916 53.0085 61.7818 54.4009 61.7818 55.0269C61.8869 55.8834 62.0072 56.78 62.1124 57.7466C62.3979 60.1657 62.6482 62.4595 62.8836 64.6232C63.0489 66.8269 63.1291 68.4998 63.1291 69.6267C63.1291 73.348 62.1975 75.2312 60.3293 75.2312C59.0972 75.2312 56.9035 73.7186 53.7932 70.7335C51.0135 68.1291 48.1888 65.9855 45.3139 64.2826L45.2137 63.7668C47.1971 64.1625 48.9801 64.3528 50.5628 64.3528L51.7448 64.3528C53.5078 64.3528 54.3843 63.7117 54.3843 62.4095L54.7248 48.1403L54.805 23.6088C51.7448 24.3951 49.5411 25.0512 48.1838 25.5571C46.8816 26.0129 45.1036 26.7741 42.8347 27.8509C42.9499 27.4503 43.1202 27.1397 43.3456 26.9193C43.5709 26.8042 44.3623 26.3534 45.7246 25.5571L45.8048 25.4619C46.4308 25.0261 46.9217 24.6054 47.2622 24.1997L45.8949 24.1997C44.9733 24.1997 44.0367 24.0245 43.01 23.6839C42.6794 25.6672 41.9933 26.6639 40.9866 26.6639C40.3505 26.6639 39.5592 26.068 38.5975 24.886C37.0599 22.8375 36.3588 21.1346 36.474 19.7873L36.474 17.6587C36.6392 13.4115 37.1601 10.0258 38.0116 7.47645L39.6143 2.37783L40.2904 3.4847C40.4056 3.70508 40.4858 4.04564 40.5559 4.49139C40.8213 4.49139 41.1068 4.46135 41.3923 4.41126ZM50.8984 9.50992C52.5512 9.50992 53.3625 10.0258 53.3625 11.0475C53.3625 11.5985 52.6363 12.6803 51.1638 14.263C50.1471 15.2897 48.6997 17.0427 46.8415 19.5369C48.4142 19.0711 49.7264 18.8507 50.7331 18.8507C51.4844 18.8507 52.7766 19.1362 54.6347 19.6921C54.5846 18.4 54.5295 17.0777 54.4594 15.7104L54.4594 14.0175C54.4093 13.5618 54.3893 13.076 54.3893 12.5701C54.3292 12.1744 54.2992 11.7737 54.2992 11.373C54.229 10.7019 54.209 9.9757 54.209 9.17935C54.3843 6.11917 53.7883 4.59158 52.421 4.59158L52.0904 4.59158L48.2739 6.28944C47.708 6.56992 46.7964 6.72521 45.5543 6.72521C44.4174 6.72521 43.0902 6.63004 41.5626 6.45474C42.1185 8.27282 42.5493 10.2261 42.8347 12.3197C46.7514 10.4365 49.4309 9.50992 50.8984 9.50992ZM46.9167 15.1895C46.0652 15.4249 45.3891 15.5301 44.8732 15.5301C44.6578 15.5301 44.167 15.45 43.4357 15.2847C43.2705 15.2847 43.0951 15.2596 42.9248 15.1845L43.2655 20.0327C44.5627 18.7405 45.7847 17.1328 46.9167 15.1895Z" fill="white"/>
<path d="M87.4653 34.3029C88.3267 34.0775 89.1781 33.8421 90.0296 33.6117C92.5739 33.0007 94.1015 32.5999 94.6073 32.4397L101.564 30.0456C102.075 29.8804 102.756 29.685 103.608 29.4647C104.564 29.1141 105.506 28.8085 106.407 28.523C107.139 28.3027 107.875 28.0773 108.616 27.8519C111.441 25.9236 113.319 24.5413 114.231 23.6899C115.177 22.8384 115.953 21.8017 116.519 20.5445C113.174 21.9619 110.935 23.1239 109.808 24.0154L106.062 27.0005L103.948 28.6182C102.992 29.4045 102.275 29.8002 101.825 29.8002C100.522 29.8002 99.8111 28.0172 99.6909 24.4562C102.35 22.3476 104.279 20.795 105.471 19.7782C106.653 18.7014 108.14 17.264 109.883 15.4459C108.641 15.6262 107.584 15.7064 106.753 15.7064C106.292 15.7064 105.982 15.6713 105.811 15.6262L102.926 15.1855C101.624 14.9651 100.853 14.5143 100.628 13.8382L101.314 13.4075L116.514 8.39399C117.531 8.06343 118.568 7.8831 119.655 7.8831C121.964 7.8831 123.136 8.48412 123.136 9.68115C123.136 10.3523 121.718 11.5894 118.878 13.4025C118.037 14.0786 117.246 14.7598 116.509 15.4359C116.224 15.6613 115.688 16.087 114.897 16.713C114.386 17.1688 113.85 17.6146 113.284 18.0704C113.499 18.0153 113.705 17.9852 113.87 17.9852C115.863 17.6446 117.155 17.3892 117.782 17.2139C119.354 16.9284 120.511 16.7982 121.262 16.7982C122.219 16.7982 123.161 17.0787 124.052 17.6446C124.974 18.2657 125.42 18.8667 125.42 19.4176C125.42 20.0437 123.817 21.7166 120.586 24.4462C120.967 24.3811 121.488 24.3109 122.114 24.1807C122.269 24.1306 122.419 24.1056 122.535 24.1056C122.64 24.0354 122.76 24.0004 122.875 24.0004C123.551 23.8401 123.972 23.75 124.137 23.75C124.658 23.75 125.79 24.0655 127.543 24.6916C128.455 24.9821 129.166 25.3777 129.667 25.8735L130.263 27.0656L125.254 28.2526L121.262 28.8436C118.493 29.4095 116.685 29.8102 115.823 30.0256C114.972 30.256 113.7 30.6917 111.997 31.2978C110.87 32.2143 110.129 33.0857 109.798 33.9372C109.457 34.7886 109.262 36.206 109.202 38.1794C112.147 36.7069 114.271 35.7252 115.568 35.2144C116.82 34.7636 117.992 34.5282 119.139 34.5282C120.546 34.5282 121.909 35.1292 123.211 36.3062C123.942 36.9323 124.338 39.2211 124.393 43.1878L124.568 55.7541L124.989 66.6276L124.989 67.8997C124.989 73.5042 123.837 76.309 121.508 76.309C120.04 76.309 118.192 74.4358 115.903 70.6995C115.122 69.4624 114.321 68.2654 113.534 67.1385C112.568 65.8363 111.236 64.0482 109.533 61.7894L110.304 61.9547C113.013 63.317 115.117 64.5641 116.585 65.691C117.035 66.1468 117.261 66.317 117.261 66.2069C117.661 65.9765 117.992 64.8495 118.277 62.8011L118.277 57.5372L118.277 57.457L118.277 57.3669L118.277 57.2016L118.277 56.866L118.277 56.0948C118.277 55.3635 118.307 54.6322 118.378 53.896C113.329 58.5939 110.269 60.9329 109.202 60.9329C108.917 60.9329 108.471 60.8328 107.845 60.6074L107.845 62.5557L107.845 62.6458L107.845 62.8061L107.845 63.0665L107.845 63.6575C107.845 64.1634 107.865 64.6442 107.935 65.0999L107.935 66.8078C107.935 68.661 107.534 70.1485 106.753 71.2203C105.1 70.9949 103.713 69.8881 102.586 67.9097C101.459 65.8663 100.883 63.5022 100.883 60.7726C100.883 54.3818 102.185 47.6805 104.795 40.6486C105.255 39.3564 105.716 38.0692 106.232 36.8371C106.798 35.3596 107.359 33.9172 107.935 32.4998C107.484 32.6651 106.993 32.8804 106.487 33.0908C106.147 33.206 105.841 33.3512 105.556 33.5165C105.441 33.5165 105.331 33.5516 105.215 33.5966C105.165 33.5966 105.1 33.6417 105.05 33.6968L100.042 36.3162C98.514 37.1727 96.8111 37.6034 94.9329 37.6034C93.24 37.6034 90.7158 36.6067 87.3901 34.6234L87.4653 34.3029ZM109.377 0.250161C111.982 0.250161 114.261 0.71096 116.174 1.60748C118.152 2.52403 119.149 3.59082 119.149 4.83293C119.149 6.20024 118.257 6.8664 116.519 6.8664C115.708 6.8664 115.012 6.67606 114.396 6.27538C114.326 6.27538 114.281 6.24533 114.231 6.20025L114.045 6.20025C114.005 6.14015 113.94 6.09509 113.88 6.03499C113.82 6.03499 113.775 6.00491 113.715 5.94481L113.614 5.94481L108.361 7.72283L108.271 7.72283L108.19 7.72283L107.85 7.72283L107.85 7.29211C109.142 6.49576 110.169 5.73948 110.91 5.00824C110.795 4.89805 110.685 4.77284 110.569 4.66265L110.479 4.57752L106.998 2.62922C106.658 2.45893 106.237 2.1985 105.716 1.85291C106.512 0.791113 107.735 0.25016 109.377 0.250161ZM111.586 49.3283C110.845 49.4986 110.274 49.5887 109.883 49.5887C109.658 49.5887 109.347 49.5637 108.942 49.4986C108.716 49.4385 108.531 49.4084 108.356 49.4084L108.265 54.3317C109.688 52.694 110.795 51.0312 111.586 49.3283ZM114.296 43.4734C115.037 43.4734 116.309 44.0593 118.122 45.2514L118.122 43.0527C118.122 40.3831 117.536 39.0509 116.344 39.0509C116.119 39.0509 115.708 39.2763 115.152 39.7421C113.459 41.1545 112.042 41.8656 110.915 41.8656C110.064 41.8656 109.377 41.8306 108.872 41.7655L108.541 46.2731C110.915 44.41 112.838 43.4734 114.296 43.4734ZM113.124 53.0646C115.197 51.8325 116.9 50.6655 118.222 49.5887L118.122 45.5118C117.496 46.7439 117.085 47.4951 116.85 47.7205L113.199 52.5538L113.199 52.6439C113.149 52.6439 113.119 52.6739 113.119 52.729C113.039 52.7891 112.993 52.8692 112.943 52.9894C112.893 53.0395 112.838 53.1347 112.778 53.2399C112.898 53.1798 112.998 53.1297 113.124 53.0646ZM138.156 30.6517C140.485 29.1141 142.243 27.7618 143.43 26.5798C144.617 25.3978 146.004 23.6949 147.587 21.4811C144.752 22.6131 142.619 23.5296 141.141 24.1957C139.774 24.8218 138.452 25.533 137.149 26.3193C136.288 26.8352 135.692 27.0856 135.291 27.0856C133.874 27.0856 132.642 25.6982 131.625 22.9286C133.103 18.6814 134.099 15.2906 134.6 12.7363C135.166 10.1319 135.441 7.61764 135.441 5.17852L135.441 2.89468C135.391 1.97813 135.336 1.02149 135.296 -0.000235764C137.71 1.19178 139.328 2.44392 140.129 3.7311C140.971 4.98322 141.452 7.02164 141.577 9.84141C142.523 9.51586 143.57 9.11017 144.707 8.66441C144.993 8.55423 145.233 8.44407 145.468 8.32888C147.171 8.61436 148.589 9.00502 149.716 9.51589C150.853 10.0268 151.419 10.5626 151.419 11.1336C151.419 11.5193 150.998 11.97 150.146 12.4909C149.295 13.0468 148.328 13.4475 147.251 13.6729C146.175 13.9584 144.221 14.0936 141.392 14.0936L140.971 14.0936L139.358 19.618L146.41 17.5896C147.036 17.3542 147.877 17.1388 148.954 16.8934C149.24 16.7832 149.52 16.698 149.806 16.6529L150.822 16.3925C154.959 16.7782 157.013 17.835 157.013 19.5328C157.013 20.3292 156.202 21.401 154.559 22.7583C152.631 24.4662 150.567 26.4645 148.358 28.7885C150.227 28.9087 151.168 29.4146 151.168 30.3261C151.168 31.0624 150.797 31.6233 150.051 32.019L144.807 34.8237C144.467 35.0491 143.876 35.6401 143.104 36.6067C146.38 35.5299 148.809 34.984 150.392 34.984C151.303 34.984 152.115 35.2144 152.866 35.6702C153.657 36.186 154.038 36.7219 154.038 37.2879C154.038 37.6836 153.657 38.1543 152.866 38.7303C152.115 39.2863 150.597 40.1978 148.268 41.4399C146.585 42.2913 144.933 43.5986 143.35 45.3415L143.25 45.4367C143.104 45.5519 143.034 45.632 143.104 45.6921C143.104 45.8023 143.29 45.8874 143.69 45.9425C144.256 45.8874 144.827 45.8574 145.383 45.8574L145.989 45.8574L146.585 45.8574C151.103 45.8574 153.372 46.7088 153.372 48.4117C153.372 48.9726 153.156 49.3683 152.776 49.5987C152.325 49.8241 151.073 50.1597 149.04 50.6105C148.519 50.7207 147.953 50.8959 147.347 51.1163L143.69 52.5638L143.435 52.3935C143.6 52.2833 143.751 52.138 143.866 51.9677C144.592 51.2966 145.158 50.8359 145.549 50.6105C141.702 49.9393 139.779 48.8074 139.779 47.2197C139.779 46.4885 140.3 45.602 141.316 44.5853C142.168 43.6887 143.154 42.5167 144.291 41.1043C143.996 41.0442 143.725 41.0192 143.44 41.0192C142.483 40.909 141.632 40.7688 140.896 40.5985C139.243 44.5001 138.136 47.6054 137.58 49.9393C137.004 52.3684 136.719 55.033 136.719 57.9178C136.719 61.0832 137.435 63.2318 138.852 64.3638C140.831 66.1768 143.555 67.0834 147.011 67.0834C148.879 67.0834 151.108 66.9131 153.722 66.5725C156.307 66.292 158.41 65.9264 159.993 65.4656C161.13 65.1251 161.696 64.1133 161.696 62.4105C161.696 60.6024 160.619 57.402 158.465 52.8142L158.896 52.8142C160.874 56.0447 162.242 58.023 162.973 58.7642L168.988 65.4706C169.554 66.1518 169.85 66.8029 169.85 67.4139C169.85 70.0784 166.544 71.7913 159.913 72.5275L157.459 72.8481C156.257 72.9132 154.298 72.9984 151.599 73.1136C147.352 73.0034 144.066 72.5926 141.747 71.9215C139.358 71.2454 137.355 70.0784 135.722 68.4406C132.992 65.8913 131.635 62.1901 131.635 57.3218C131.635 55.2934 131.87 52.8442 132.321 50.0245C132.842 47.0194 133.623 43.3231 134.7 38.9007C134.465 38.9007 134.154 38.9206 133.759 38.9807L133.593 38.9807L133.438 38.9807L133.338 38.9807L133.258 38.9807L133.168 38.9807C132.316 38.9807 131.465 38.3898 130.623 37.2028L128.655 34.7436L128.655 34.403C131.77 33.8721 134.941 32.64 138.156 30.6517ZM141.051 62.0649C141.216 61.9597 141.381 61.8394 141.572 61.7243C141.672 61.6191 141.807 61.5039 141.993 61.3837C142.098 61.3286 142.208 61.2534 142.323 61.1282C144.086 60.0063 144.953 58.9846 144.953 58.0831C144.953 57.8627 144.872 57.7074 144.697 57.6523L142.408 55.9445L142.318 55.9445L142.318 55.8794L142.238 55.8794C142.238 55.8143 142.198 55.7792 142.148 55.7792L142.148 55.6941C142.088 55.6941 142.033 55.669 141.983 55.6039C141.922 55.5538 141.857 55.5188 141.797 55.5188C141.797 55.4637 141.767 55.4386 141.727 55.4386C141.727 55.3785 141.687 55.3485 141.627 55.3485L141.727 54.8376C143.535 54.6673 145.163 54.5822 146.645 54.5822C148.629 54.5822 150.297 54.9778 151.644 55.7642C153.001 56.5505 153.697 57.5422 153.697 58.7392C153.697 59.9262 152.786 60.5122 150.978 60.5122L150.888 60.5122L150.797 60.5122L150.717 60.5122L150.627 60.5122C150.567 60.5122 150.537 60.4821 150.537 60.427L150.447 60.427L150.357 60.427L150.277 60.427L150.186 60.427C146.851 60.4821 143.68 61.1934 140.69 62.5557L140.505 62.4705C140.72 62.3704 140.886 62.2352 141.051 62.0649Z" fill="white"/>
<path d="M246.124 46.5736L241.361 58.9796C240.189 61.9797 239.573 64.1884 239.573 65.6008C239.573 66.4423 240.189 67.7845 241.361 69.5826L241.206 69.5826L241.106 69.6677L240.85 69.6677L240.77 69.7578L240.68 69.7578L240.59 69.7578C240.259 69.7578 239.543 69.5275 238.466 69.0667L235.676 67.9698C232.842 66.7828 231.429 65.3955 231.429 63.8128C231.429 63.0215 231.955 61.4538 233.032 59.1399L237.444 49.8792C240.389 43.7738 244.752 37.969 250.521 32.4797C251.528 31.463 252.47 30.7218 253.331 30.271C254.123 29.8754 255.55 29.3294 257.654 28.6583L257.919 28.9989C252.324 34.8838 248.393 40.7338 246.124 46.5736ZM242.212 40.9741C241.311 39.6619 240.705 38.3697 240.434 37.0575C240.149 35.7002 240.014 33.5866 240.014 30.6917L240.014 28.5682C238.701 31.0023 237.82 32.7352 237.384 33.7569C236.828 35.0641 236.222 36.6368 235.606 38.5049C235.606 38.4549 235.576 38.3997 235.506 38.3497L235.506 38.1694L235.506 38.0041L235.416 38.0041L235.416 37.9189L235.416 37.8288L235.416 37.7337C235.416 37.2328 235.641 36.5266 236.112 35.6251C236.327 35.1643 236.758 33.6417 237.384 31.0373L238.997 23.5597C239.553 21.2458 239.838 19.2323 239.838 17.5394C239.838 14.93 239.939 13.0418 240.094 11.8448C240.495 9.41571 241.336 8.19362 242.648 8.19362C243.725 8.19362 244.712 9.35062 245.613 11.6645C246.58 13.9334 247.061 16.3074 247.061 18.8066C247.061 21.6314 246.72 24.6915 246.044 27.9771C245.358 31.3127 244.176 35.59 242.483 40.7989L242.212 40.9741ZM220.14 60.5823C219.514 62.0548 218.968 63.5023 218.517 64.9147C218.057 66.4422 217.841 67.5441 217.841 68.2303C217.841 69.0216 218.242 70.4641 219.033 72.5576C217.115 72.0968 215.522 71.3706 214.28 70.3439C213.028 69.3271 212.412 68.2002 212.412 66.9531C212.412 65.5958 212.687 64.1133 213.253 62.5356C213.774 60.998 214.946 58.2584 216.834 54.2967C214 55.0379 211.846 55.654 210.379 56.1648C209.001 56.6156 207.268 57.3218 205.105 58.2884C201.594 59.7559 198.884 60.4871 196.946 60.4871C195.538 60.4871 194.176 60.0965 192.874 59.2951C191.917 58.6791 191.436 58.1532 191.436 57.6924C191.436 56.5004 194.176 55.4837 199.675 54.6473C200.517 54.467 201.473 54.2716 202.55 54.0412C203.918 53.7607 205.34 53.4252 206.807 53.0245C207.534 50.7607 207.904 49.0277 207.904 47.8507C207.904 47.3299 207.884 46.9693 207.824 46.7439L207.559 44.7055C207.509 44.4801 207.489 43.889 207.489 42.9274L207.489 40.6336C202.726 43.4633 198.684 44.8757 195.338 44.8757C194.201 44.8757 193.184 44.6503 192.278 44.2046C191.321 43.6937 190.84 43.1528 190.84 42.5818C190.84 41.9708 191.682 41.2246 193.385 40.3781C200.116 36.8822 203.492 33.8972 203.492 31.4731C203.492 28.9137 201.233 27.5914 196.705 27.4812C193.82 27.4161 191.276 27.0205 189.067 26.2893C186.904 25.5029 185.837 24.6114 185.837 23.6598C185.837 22.8033 186.433 22.1923 187.615 21.7866C187.79 21.7315 188.356 21.6514 189.318 21.5362C190.51 21.3108 191.717 21.1155 192.969 20.9452C193.525 20.8801 194.106 20.815 194.662 20.6848C195.308 20.6297 195.894 20.5445 196.46 20.4243C198.203 20.2039 200.933 19.1021 204.599 17.1237L204.764 17.5494C201.779 19.4727 199.65 21.0304 198.403 22.2174C201.113 23.1339 202.981 24.0555 203.998 25.0221C205.014 25.9286 205.515 27.1107 205.515 28.5782C205.515 30.5665 204.764 33.7669 203.236 38.1794C204.764 37.7837 206.201 37.5884 207.559 37.5884L207.899 37.5884C208.195 34.0274 208.36 31.2777 208.41 29.3445C208.535 27.3611 208.585 25.583 208.585 24.0054C208.585 23.0988 208.555 22.4828 208.505 22.1322L208.085 8.98497L208.085 6.51581C208.085 5.04332 208.27 3.77117 208.671 2.68433C209.121 1.61752 209.637 1.07661 210.198 1.07661C210.474 1.07661 211.305 1.95306 212.652 3.71604C214.921 6.43064 216.058 9.27549 216.058 12.2906C216.058 12.6762 216.028 13.0519 215.978 13.4025L214.521 23.149L213.854 33.9322C213.739 36.3613 213.454 38.8555 213.003 41.4099C212.602 43.7288 211.856 47.1345 210.794 51.5971C213.904 50.0645 216.203 48.8174 217.671 47.8608C219.198 46.839 220.751 45.5919 222.339 44.1244C223.581 42.8773 224.608 42.2613 225.399 42.2613C227.432 42.2613 228.654 44.2898 229.04 48.3767C224.808 52.6589 221.833 56.7458 220.14 60.5823Z" fill="white"/>
<path d="M281.679 27.7318C289.139 27.7318 295.187 21.6841 295.187 14.2239C295.187 6.76374 289.139 0.716068 281.679 0.716067C274.219 0.716066 268.171 6.76374 268.171 14.2239C268.171 21.6841 274.219 27.7318 281.679 27.7318Z" stroke="white" stroke-miterlimit="10"/>
<path d="M286.121 22.5171C285.836 21.6657 285.741 21.0547 285.741 19.6624L285.741 18.2399C285.741 15.9711 284.479 15.4202 282.981 15.4202L277.777 15.4202L277.777 22.5171L275.734 22.5171L275.734 5.92407L283.607 5.92407C286.973 5.92407 288.225 8.31815 288.225 10.4067C288.225 11.6388 287.774 12.9059 286.953 13.6822C286.502 14.1079 286.041 14.3133 285.611 14.4936C286.237 14.6789 286.728 14.8091 287.223 15.6706C287.749 16.542 287.789 17.5738 287.789 18.0797L287.789 19.3168C287.789 20.028 287.894 20.7892 287.965 21.24C288.08 21.7609 288.22 21.9362 288.551 22.1766L288.551 22.5171L286.121 22.5171ZM283.227 7.61192L277.777 7.61192L277.777 13.7774L283.031 13.7774C284.96 13.7774 286.081 12.38 286.081 10.6321C286.081 9.06941 285.23 7.61192 283.227 7.61192Z" fill="white"/>
</svg>
