<svg width="29" height="49" viewBox="0 0 29 49" fill="none" xmlns="http://www.w3.org/2000/svg">
<path d="M14.5002 -0.000241605C10.5039 0.000290942 6.88776 1.68068 4.25643 4.4053C1.62705 7.13166 0.000518045 10.8862 -2.62934e-06 15.0378L-5.93809e-06 33.9617C0.000383297 38.1135 1.62704 41.8681 4.25629 44.5942C6.88775 47.3188 10.5039 48.9991 14.5001 48.9998C18.4964 48.9991 22.1124 47.319 24.7437 44.5944C27.3729 41.8681 28.9995 38.1135 29 33.9617L29 15.038C28.9995 10.8863 27.3728 7.13167 24.7438 4.40558C22.1125 1.68082 18.4964 0.000425651 14.5002 -0.000241605ZM28.1674 24.7561L28.1674 33.9617L28.1674 35.4862L28.0865 35.4862C27.7342 38.8728 26.2241 41.9083 23.975 44.1507C21.5213 46.5992 18.1753 48.1124 14.5002 48.1123C10.8251 48.1124 7.47906 46.5992 5.02555 44.1508C2.77652 41.9082 1.26633 38.8727 0.914192 35.4862L0.833212 35.4862L0.833212 33.9617L0.833214 24.7561L0.833215 15.038C0.833086 11.1413 2.36472 7.59985 4.83617 5.04013C7.30632 2.47908 10.7299 0.887346 14.5002 0.88748C18.2703 0.887347 21.6941 2.47895 24.1641 5.04C26.6359 7.59985 28.1676 11.141 28.1674 15.038L28.1674 24.7561Z" fill="white"/>
<path d="M14.8535 21.7665C14.9 21.6918 14.9363 21.6063 14.9612 21.5126C14.9861 21.4184 15 21.3161 15.0001 21.202L15.0001 15.7974C15 15.6832 14.986 15.5808 14.9612 15.4867C14.9363 15.393 14.9 15.3076 14.8535 15.2328C14.8067 15.1589 14.7531 15.1011 14.6946 15.0616C14.6356 15.022 14.5716 14.9999 14.5002 14.9995C14.4287 14.9998 14.3646 15.022 14.3057 15.0616C14.2469 15.1013 14.1933 15.159 14.1465 15.2331C14.1001 15.3078 14.0639 15.3931 14.0391 15.4867C14.0141 15.5808 14.0003 15.6832 14.0001 15.7973L14.0001 21.2016C14.0003 21.3158 14.0142 21.4182 14.0391 21.5124C14.0639 21.6059 14.1001 21.6912 14.1465 21.7659C14.1934 21.84 14.2469 21.8978 14.3057 21.9374C14.3646 21.9771 14.4287 21.9991 14.5 21.9995C14.5715 21.9991 14.6356 21.9771 14.6946 21.9374C14.7531 21.8982 14.8067 21.8405 14.8535 21.7665Z" fill="white"/>
</svg>
