<svg width="29" height="21" viewBox="0 0 29 21" fill="none" xmlns="http://www.w3.org/2000/svg">
<path d="M0 0C9.6036 1.67915e-06 19.151 3.34847e-06 28.7432 5.02563e-06C28.7432 0.552613 28.7432 1.0957 28.7432 1.65335C19.1794 1.65335 9.61524 1.65334 -2.8908e-07 1.65334C-1.9381e-07 1.10846 -9.79918e-08 0.560448 0 0Z" fill="white"/>
<path d="M0 19.0898C9.6036 19.0898 19.151 19.0898 28.7432 19.0898C28.7432 19.6425 28.7432 20.1855 28.7432 20.7432C19.1794 20.7432 9.61524 20.7432 -2.8908e-07 20.7432C-1.9381e-07 20.1983 -9.80114e-08 19.6504 0 19.0898Z" fill="white"/>
<path d="M0 9.54492C9.6036 9.54492 19.151 9.54493 28.7432 9.54493C28.7432 10.0975 28.7432 10.6406 28.7432 11.1983C19.1794 11.1983 9.61524 11.1983 -2.8908e-07 11.1983C-1.9383e-07 10.6535 -9.80114e-08 10.1055 0 9.54492Z" fill="white"/>
</svg>
