<svg width="20" height="19" viewBox="0 0 20 19" fill="none" xmlns="http://www.w3.org/2000/svg">
<path d="M19.8866 17.8482C18.4236 15.3489 16.169 13.5567 13.5379 12.7071C14.8394 11.9415 15.8506 10.7749 16.4161 9.38652C16.9817 7.99809 17.0704 6.46459 16.6686 5.02152C16.2668 3.57846 15.3968 2.30561 14.1921 1.39846C12.9874 0.491303 11.5146 2.01328e-06 10 1.74846e-06C8.48537 1.48363e-06 7.01262 0.491302 5.80792 1.39846C4.60321 2.30561 3.73316 3.57845 3.33138 5.02152C2.9296 6.46459 3.0183 7.99809 3.58387 9.38652C4.14944 10.7749 5.1606 11.9415 6.46207 12.7071C3.83095 13.5557 1.5764 15.3479 0.113384 17.8482C0.0597327 17.9346 0.0241463 18.0308 0.00872416 18.1311C-0.00669793 18.2313 -0.00164323 18.3336 0.02359 18.4319C0.0488233 18.5302 0.093724 18.6225 0.155643 18.7034C0.217562 18.7842 0.295244 18.852 0.384108 18.9028C0.472971 18.9535 0.571215 18.9861 0.673044 18.9987C0.774872 19.0113 0.878221 19.0036 0.976994 18.9761C1.07577 18.9486 1.16796 18.9018 1.24814 18.8385C1.32832 18.7752 1.39486 18.6967 1.44383 18.6076C3.25362 15.5169 6.45246 13.6716 10 13.6716C13.5475 13.6716 16.7464 15.5169 18.5562 18.6076C18.6051 18.6967 18.6717 18.7752 18.7519 18.8385C18.832 18.9018 18.9242 18.9486 19.023 18.9761C19.1218 19.0036 19.2251 19.0113 19.3269 18.9987C19.4288 18.9861 19.527 18.9535 19.6159 18.9028C19.7047 18.852 19.7824 18.7842 19.8443 18.7034C19.9063 18.6225 19.9512 18.5302 19.9764 18.4319C20.0016 18.3336 20.0067 18.2313 19.9913 18.1311C19.9758 18.0308 19.9403 17.9346 19.8866 17.8482ZM4.62057 6.83707C4.62057 5.78572 4.93607 4.75798 5.52717 3.88382C6.11827 3.00965 6.95842 2.32833 7.94138 1.92599C8.92434 1.52366 10.006 1.41839 11.0495 1.6235C12.093 1.82861 13.0515 2.33488 13.8038 3.07829C14.5562 3.82171 15.0685 4.76888 15.2761 5.80003C15.4836 6.83117 15.3771 7.89998 14.9699 8.8713C14.5628 9.84262 13.8733 10.6728 12.9886 11.2569C12.104 11.841 11.0639 12.1528 10 12.1528C8.57375 12.1513 7.20636 11.5907 6.19786 10.5942C5.18935 9.59762 4.6221 8.24642 4.62057 6.83707Z" fill="white"/>
</svg>
