<svg width="28" height="21" viewBox="0 0 28 21" fill="none" xmlns="http://www.w3.org/2000/svg">
<path d="M17.3562 4.91919L25.622 4.91919C26.0754 5.06567 26.4428 5.43297 26.4428 5.88646L26.4428 7.52818C26.4428 7.98167 26.0754 8.34911 25.622 8.55407L20.9907 8.55406" stroke="white" stroke-width="1.4" stroke-miterlimit="10" stroke-linecap="round" stroke-linejoin="round"/>
<path d="M5.54324 8.55382L1.82079 8.55382C1.36744 8.34886 0.999999 7.98142 1 7.52793L1 5.88621C1 5.43286 1.36744 5.06542 1.82079 4.91895L8.26933 4.91895" stroke="white" stroke-width="1.4" stroke-miterlimit="10" stroke-linecap="round" stroke-linejoin="round"/>
<path d="M24.6257 8.55396L22.8081 17.6407C22.6849 18.4411 21.801 19.458 20.9908 19.458L6.45212 19.458C5.64205 19.458 4.75804 18.441 4.63468 17.6407L2.81738 8.55396" stroke="white" stroke-width="1.4" stroke-miterlimit="10" stroke-linecap="round" stroke-linejoin="round"/>
<path d="M9.17773 12.1887L9.17773 15.8235" stroke="white" stroke-width="1.4" stroke-miterlimit="10" stroke-linecap="round" stroke-linejoin="round"/>
<path d="M13.7209 12.1887L13.7209 15.8235" stroke="white" stroke-width="1.4" stroke-miterlimit="10" stroke-linecap="round" stroke-linejoin="round"/>
<path d="M18.2646 12.1887L18.2646 15.8235" stroke="white" stroke-width="1.4" stroke-miterlimit="10" stroke-linecap="round" stroke-linejoin="round"/>
<path d="M13.7213 6.73646L11 1" stroke="white" stroke-width="1.4" stroke-miterlimit="10" stroke-linecap="round" stroke-linejoin="round"/>
</svg>
