<svg width="277" height="42" viewBox="0 0 277 42" fill="none" xmlns="http://www.w3.org/2000/svg">
<path d="M41.1082 34.2351C41.1082 38.0336 38.0327 41.1091 34.2329 41.1091L6.8766 41.1091C3.07813 41.1091 0.00011542 38.0336 0.000116084 34.2351L0.000120868 6.87625C0.000121532 3.07777 3.07813 -0.000243602 6.87661 -0.000242938L34.2329 -0.000238155C38.0314 -0.000237491 41.1082 3.07778 41.1082 6.87625L41.1082 34.2351Z" fill="#E31019"/>
<path d="M32.8825 30.3071L32.704 30.5561C33.7199 31.8562 34.7346 33.2254 34.3159 33.9107C33.8972 34.5947 29.4814 36.5826 27.2093 36.5826C24.1036 36.5826 21.0193 35.5214 20.8785 31.6097C20.6987 26.7035 22.5483 23.7211 22.5483 23.7211C24.1036 22.9126 31.3246 18.537 30.9713 16.0751C30.2559 11.0394 23.9603 16.7277 23.2071 15.8274C22.8387 15.3898 23.4649 14.145 24.2847 12.8902C24.4016 13.0499 24.7235 13.6798 24.8115 13.8068C24.892 13.9237 24.9184 13.9451 24.9561 13.8496C24.9989 13.749 25.185 13.2146 25.2466 13.0775C25.283 12.9883 25.3346 12.9682 25.3887 13.0298C25.4892 13.1517 25.7143 13.4648 25.8224 13.5553C25.9004 13.622 25.9268 13.632 25.9268 13.5302C25.9268 13.4321 25.9268 12.7745 25.9167 12.6463C25.9105 12.5055 25.9608 12.4237 26.045 12.4841C26.123 12.5419 26.5819 12.9153 26.5819 12.9153C26.6385 12.9418 26.6586 12.9329 26.6686 12.8185C26.6812 12.7054 26.7743 11.5109 26.7956 11.2343C26.8082 11.096 26.7931 10.9891 26.9226 11.1148C27.0496 11.2431 27.3841 11.8038 27.4532 11.9409C27.4734 11.9836 27.5174 12.0075 27.5438 11.9899C27.579 11.9686 27.535 11.8139 27.5287 11.6919C27.5287 11.6919 27.242 9.7619 27.4784 9.4375C27.716 9.1131 31.3561 5.41772 31.473 5.20523C31.5862 4.99148 31.1989 4.71361 30.9185 4.5338C30.6306 4.34772 30.5891 3.7643 30.5891 3.7643C30.1918 3.38584 29.797 2.69554 29.333 3.43864C29.04 3.91015 26.8095 6.54432 25.4767 7.1466C24.7021 7.49614 23.617 8.16883 22.6828 8.7535C21.4443 8.57244 17.715 8.02548 17.1882 7.92615C16.5494 7.80419 16.5532 8.34486 17.0976 8.4379C17.5063 8.5146 20.1958 9.15333 21.5223 9.47396C21.3437 9.58084 21.1853 9.67514 21.0671 9.738C20.2549 10.168 10.1369 13.5591 9.30706 13.7502C8.47343 13.9439 8.52247 14.4506 9.40513 14.3525C10.2928 14.2532 20.0109 11.3223 20.964 11.0343C21.1627 10.9715 21.1074 11.0607 20.9917 11.1211C20.9917 11.1211 19.9808 11.9283 19.8978 11.9748C19.8211 12.0276 19.8161 12.0955 19.9305 12.0629C20.0474 12.0327 20.6874 11.8353 20.7792 11.8126C20.8735 11.7862 20.881 11.8478 20.827 11.9057C20.7817 11.9497 20.1555 12.6664 20.0814 12.7355C20.0197 12.8022 20.0047 12.86 20.1379 12.8286C20.2448 12.8047 21.3777 12.1735 21.7235 12.1006C20.9062 13.6735 19.7067 16.7855 21.1174 18.2491C22.8488 20.0521 25.8954 15.8249 27.2093 17.3764C28.5207 18.9318 22.1334 20.7965 21.4154 21.9168C20.7 23.0333 18.9346 28.3846 19.5042 32.2283C19.7431 33.8428 20.104 38.5076 27.1464 38.5076C34.1964 38.5076 37.5989 35.0901 37.5989 33.7812C37.6001 32.4798 33.3012 31.2413 32.8825 30.3071Z" fill="#221814"/>
<path d="M11.7828 14.496C9.12981 16.1469 9.3926 19.3318 10.7329 19.2815C11.4635 19.2551 12.5863 18.0053 12.4492 16.9164C12.3185 15.8326 12.3851 14.6796 12.9132 14.2973L12.3185 14.2319L11.7828 14.496Z" fill="#221814"/>
<path d="M15.0532 19.9315C15.2229 19.9038 15.3927 19.8787 15.5574 19.8586C19.6488 19.3468 18.9887 18.3862 18.4606 18.0668C18.0708 17.8305 14.5251 18.8791 11.9739 19.7593C13.279 18.3862 17.935 15.9834 18.4392 15.7923C18.9849 15.5785 18.6593 14.1804 17.8935 13.8635C17.1316 13.5454 14.0259 14.7625 12.9395 16.3958L12.966 16.6599C12.966 16.6599 15.2518 15.7332 15.3059 16.1582C15.3587 16.5631 13.2426 17.6834 11.5539 19.9039C10.8259 20.1591 10.2073 20.3904 9.80998 20.5627C8.02579 21.3259 4.26001 22.3532 4.26001 22.3532C4.26001 22.3532 5.64813 23.8872 6.11209 23.4383C6.49307 23.0724 9.84142 21.2455 13.2916 20.3175C11.012 22.1067 8.3766 27.5348 7.76426 31.3659C7.30155 34.2503 5.91595 35.392 6.11335 35.8358C6.31076 36.2834 8.49227 38.9679 9.01785 38.3958C9.54971 37.8199 9.28189 35.9641 9.08574 34.4967C8.99899 33.8228 8.9927 31.5772 9.64401 28.8965C17.5339 18.3498 16.484 28.2942 16.484 29.6987C16.484 32.6447 15.4932 35.4486 14.2384 36.2206C14.0485 36.3388 13.7795 36.3903 13.484 36.4092C13.1432 36.3928 11.271 36.1288 11.271 36.6393C11.271 37.1649 11.9588 36.765 12.6239 37.5219C13.1998 38.1783 13.1646 38.2462 13.235 38.5417C13.2916 38.7843 14.0397 38.6925 14.5276 38.4272C15.6642 37.9633 17.9979 35.7088 17.9979 30.6618C17.9979 24.8402 17.6672 22.7329 15.8202 22.7329C14.3377 22.7329 11.6281 24.9559 10.4412 26.3566C11.3326 24.0758 12.7723 21.7346 15.0532 19.9315Z" fill="#221814"/>
<path d="M10.2702 29.8319C10.3243 30.3198 10.9366 30.4178 11.608 30.2519C12.2794 30.0884 13.7506 29.3139 13.4161 29.0209C13.0804 28.733 12.4127 28.2778 11.6734 28.44C10.9378 28.5997 10.2388 29.5075 10.2702 29.8319Z" fill="#221814"/>
<path d="M9.53465 32.7048C9.75595 32.3213 15.0205 30.3359 14.9903 30.7232C14.9576 31.1117 12.0104 33.4139 11.5074 33.6402C11.0045 33.8665 9.09709 33.4466 9.53465 32.7048Z" fill="#221814"/>
<path d="M23.2059 24.4616C23.0889 25.0739 25.1787 25.7692 26.1318 25.5203C27.0861 25.2726 28.5207 24.0894 28.2831 23.1615C28.0442 22.2272 26.9063 23.0961 26.1946 23.345C25.4779 23.5978 23.3266 23.8417 23.2059 24.4616Z" fill="#221814"/>
<path d="M22.2552 28.0048C22.7896 28.0048 25.2955 26.9512 26.2524 26.9512C27.2105 26.9512 27.389 27.1373 27.3299 27.5723C27.2683 28.0048 26.1971 29.183 25.3559 29.2484C24.5235 29.3125 21.5951 29.183 21.536 28.6888C21.4769 28.1934 22.2552 28.0048 22.2552 28.0048Z" fill="#221814"/>
<path d="M22.3119 30.9899C23.0864 30.9899 26.9692 29.8721 27.2672 29.7451C27.5677 29.6231 27.6859 29.6873 27.628 30.1223C27.5677 30.5561 25.0555 32.5427 24.1602 32.7313C23.265 32.9161 21.9548 31.7367 21.8316 31.5519C21.7172 31.3658 21.7172 30.9899 22.3119 30.9899Z" fill="#221814"/>
<path d="M14.5678 9.10061C15.4354 8.81142 17.5692 9.59099 17.5314 10.1706C17.4975 10.7465 17.0712 11.0156 16.5884 11.0847C16.1056 11.1577 14.9815 10.661 14.559 9.94808C14.1353 9.23013 14.4434 9.14336 14.5678 9.10061Z" fill="#221814"/>
<path d="M25.5484 8.8867C25.5773 9.17338 25.2868 9.42988 24.9071 9.45628C24.5274 9.48395 24.2005 9.27271 24.1715 8.98603C24.1426 8.69935 24.4318 8.44034 24.809 8.41268C25.1888 8.38753 25.522 8.59876 25.5484 8.8867Z" fill="#CF1233"/>
<path d="M29.0966 2.98612C27.9863 1.88216 27.0785 1.87335 26.094 2.09842C25.1057 2.32097 22.156 3.64497 19.5356 6.42499" stroke="#221814" stroke-width="0.484" stroke-miterlimit="10" stroke-linecap="round"/>
<path d="M81.7032 2.07837L79.4249 11.3652L78.7547 11.3652C78.6013 9.91674 78.336 8.7474 77.9688 7.87605C77.3967 6.60863 76.6461 5.63166 75.7069 4.94389C74.7714 4.24983 73.7605 3.9116 72.6716 3.9116C71.6255 3.9116 70.6963 4.31773 69.9104 5.11615C69.1221 5.90954 68.7298 6.82239 68.7298 7.82953C68.7298 8.83164 69.0014 9.80986 69.5496 10.7755C70.094 11.7437 71.3916 13.1871 73.4235 15.1285C75.0417 16.6763 76.1419 18.0091 76.7014 19.1256C77.2572 20.2472 77.5388 21.4542 77.5388 22.7606C77.5388 24.233 77.1478 25.5834 76.3682 26.8295C75.5849 28.068 74.4507 29.0248 72.9696 29.7076C71.4721 30.389 69.786 30.7298 67.8987 30.7298C66.7381 30.7298 65.2871 30.555 63.5281 30.2105C61.7665 29.8735 60.601 29.7 60.0201 29.7C59.5624 29.7 59.1512 29.7679 58.7891 29.9087C58.427 30.0508 57.9756 30.3249 57.4412 30.7298L56.6478 30.7298L59.0934 20.2774L59.8579 20.2774C60.0326 22.1144 60.4048 23.671 60.9656 24.9585C61.539 26.246 62.3487 27.2482 63.391 27.9711C64.4485 28.6866 65.6505 29.0512 66.9921 29.0512C68.3224 29.0512 69.4377 28.6036 70.3379 27.726C71.2281 26.842 71.6795 25.811 71.6795 24.6291C71.6795 23.6144 71.4281 22.6475 70.9201 21.7158C70.4209 20.7853 69.2629 19.4349 67.4624 17.6545C65.6631 15.8729 64.4284 14.2886 63.7381 12.8854C63.2389 11.8455 62.9887 10.7479 62.9887 9.57349C62.9887 7.53657 63.7846 5.78255 65.3902 4.30264C66.9921 2.81393 69.0919 2.07963 71.6783 2.07963C72.8501 2.07963 74.3891 2.33739 76.3054 2.86296C77.4244 3.17227 78.2077 3.33447 78.6679 3.33447C79.059 3.33447 79.4123 3.24269 79.7166 3.07672C80.0309 2.90195 80.3981 2.57503 80.8092 2.07963L81.7032 2.07837Z" fill="white"/>
<path d="M87.0419 22.5205C86.9136 23.4019 86.8545 24.1186 86.8545 24.6856C86.8545 25.6978 87.1488 26.5013 87.7359 27.1061C88.3194 27.7171 89.1027 28.0164 90.0885 28.0164C91.0327 28.0164 91.9795 27.7901 92.9326 27.3299C93.8718 26.8722 94.9783 26.0725 96.2294 24.9308L96.8405 25.4702C95.2876 27.3462 93.7801 28.679 92.3127 29.4699C90.8479 30.2733 89.2184 30.6694 87.4417 30.6694C85.1911 30.6694 83.6357 30.1275 82.7706 29.0512C81.9068 27.9736 81.4806 26.7238 81.4806 25.3118C81.4806 23.0963 82.1218 20.896 83.4094 18.6843C84.6919 16.4751 86.4484 14.706 88.6601 13.3682C90.8819 12.0354 93.1036 11.3665 95.343 11.3665C96.4746 11.3665 97.3258 11.6406 97.9092 12.1737C98.4863 12.7156 98.7806 13.3971 98.7806 14.2131C98.7806 15.1989 98.4914 16.1595 97.9293 17.0862C97.1485 18.3523 96.1628 19.3695 94.9758 20.1453C93.7964 20.9211 92.4649 21.5171 90.995 21.917C90.013 22.1835 88.6928 22.3834 87.0419 22.5205ZM87.2192 21.4668C88.4049 21.2971 89.3215 21.0531 89.9766 20.7539C90.6316 20.4496 91.2716 19.9655 91.8965 19.2979C92.5265 18.6315 93.0646 17.789 93.5198 16.7656C93.9775 15.7534 94.2063 14.8003 94.2063 13.9164C94.2063 13.5329 94.1057 13.2399 93.897 13.0287C93.6832 12.8074 93.4267 12.7005 93.0986 12.7005C92.4498 12.7005 91.7218 13.1557 90.9158 14.061C89.4296 15.7018 88.2024 18.17 87.2192 21.4668Z" fill="white"/>
<path d="M112.418 2.07837L106.839 21.1889L111.469 16.9039L113.009 15.5296C113.444 15.0719 113.758 14.6784 113.934 14.354C114.034 14.1528 114.091 13.9679 114.091 13.7894C114.091 13.5078 113.959 13.2714 113.693 13.0865C113.42 12.8992 112.765 12.7684 111.724 12.698L111.949 11.9386L120.173 11.9386L119.97 12.698C119.013 12.9243 118.216 13.1896 117.607 13.4864C117.139 13.7215 116.565 14.0975 115.872 14.6205C114.847 15.4164 114.117 16.0275 113.673 16.46L112.786 17.2899L114.019 22.8612C114.481 25.0151 114.832 26.2662 115.06 26.5943C115.211 26.8031 115.385 26.9074 115.588 26.9074C116.059 26.9074 116.618 26.3504 117.266 25.2477C117.357 25.1044 117.488 24.8906 117.649 24.6278L118.398 25.0893C117.386 26.9728 116.249 28.4062 114.982 29.3894C114.139 30.0521 113.363 30.3815 112.682 30.3815C111.993 30.3815 111.417 30.1338 110.962 29.6422C110.502 29.1543 110.052 27.8618 109.591 25.7733L108.578 21.1889L106.356 23.1693L104.334 30.1011L99.183 30.1011L105.887 7.28509C106.171 6.31566 106.312 5.66184 106.312 5.32612C106.312 5.01933 106.249 4.76158 106.112 4.56669C105.974 4.36928 105.792 4.22594 105.555 4.13164C105.324 4.03859 104.852 3.99459 104.153 3.99459L104.336 3.24143L111.202 2.07837L112.418 2.07837Z" fill="white"/>
<path d="M130.182 11.364L126.033 25.7368C125.8 26.5566 125.687 27.0948 125.687 27.3475C125.687 27.4984 125.755 27.6404 125.869 27.7662C125.995 27.8919 126.124 27.9523 126.258 27.9523C126.489 27.9523 126.715 27.8517 126.947 27.6543C127.553 27.1526 128.282 26.2548 129.121 24.9459L129.818 25.3483C127.782 28.8915 125.619 30.6644 123.327 30.6644C122.455 30.6644 121.76 30.4179 121.234 29.9288C120.72 29.4309 120.46 28.8173 120.46 28.0579C120.46 27.5562 120.574 26.9275 120.802 26.158L123.607 16.4952C123.882 15.5736 124.012 14.8732 124.012 14.398C124.012 14.1012 123.89 13.841 123.632 13.6121C123.377 13.3795 123.026 13.2689 122.576 13.2689C122.377 13.2689 122.139 13.2714 121.856 13.2852L122.112 12.478L128.969 11.364L130.182 11.364ZM128.921 2.07837C129.761 2.07837 130.461 2.36002 131.033 2.94344C131.605 3.52308 131.896 4.22343 131.896 5.04322C131.896 5.86805 131.606 6.56839 131.022 7.14301C130.452 7.72265 129.749 8.01687 128.922 8.01687C128.112 8.01687 127.423 7.72265 126.844 7.14301C126.27 6.56839 125.977 5.86805 125.977 5.04322C125.977 4.22342 126.264 3.52308 126.831 2.94344C127.409 2.35877 128.101 2.07837 128.921 2.07837Z" fill="white"/>
<path d="M140.931 11.3665L137.877 22.7229C140.381 17.1868 142.265 13.7705 143.536 12.5031C144.27 11.7449 145.064 11.3665 145.876 11.3665C146.436 11.3665 146.898 11.5777 147.249 11.9775C147.6 12.3912 147.777 12.9746 147.777 13.7316C147.777 15.0455 147.455 16.1356 146.822 17.0233C146.427 17.5954 145.969 17.8771 145.471 17.8771C144.936 17.8771 144.536 17.6243 144.258 17.1264C143.985 16.6285 143.804 16.333 143.688 16.2475C143.59 16.1595 143.472 16.1155 143.351 16.1155C143.214 16.1155 143.068 16.1595 142.929 16.2387C142.632 16.4022 142.244 16.7945 141.765 17.4181C141.288 18.0506 140.693 19.0929 139.999 20.5628C139.296 22.0314 138.749 23.2711 138.357 24.2896C137.964 25.3068 137.427 27.2456 136.723 30.0998L131.831 30.0998L135.163 16.7027C135.411 15.7081 135.528 15.0505 135.528 14.7223C135.528 14.359 135.465 14.0748 135.336 13.8686C135.207 13.6737 135.034 13.5279 134.81 13.4336C134.591 13.3355 134.126 13.2864 133.431 13.2864L133.611 12.703L139.714 11.3677L140.931 11.3665Z" fill="white"/>
<path d="M148.28 13.1856L154.503 11.365C155.006 11.9886 155.355 12.5721 155.557 13.1291C155.915 14.0834 156.175 15.4086 156.322 17.0885C156.603 20.3978 156.804 23.9386 156.912 27.6943C158.349 25.7919 159.999 23.2835 161.861 20.1589C162.436 19.2172 162.701 18.3245 162.701 17.4921C162.701 16.9615 162.379 16.4648 161.726 16.0009C161.075 15.5218 160.663 15.1522 160.503 14.8944C160.343 14.6291 160.263 14.2934 160.263 13.8697C160.263 13.1995 160.506 12.6136 161.002 12.1119C161.491 11.6202 162.095 11.365 162.79 11.365C163.532 11.365 164.176 11.6517 164.72 12.2137C165.268 12.7808 165.54 13.4509 165.54 14.2167C165.54 15.1169 165.287 16.1694 164.779 17.3601C164.269 18.5546 163.094 20.599 161.231 23.4897C158.851 27.1951 156.508 30.4001 154.222 33.1085C152.759 34.8336 151.568 36.0821 150.669 36.8378C149.765 37.5972 148.83 38.1957 147.858 38.6434C147.278 38.8986 146.706 39.0319 146.136 39.0319C145.377 39.0319 144.714 38.7578 144.174 38.2196C143.628 37.6752 143.354 37.0453 143.354 36.2996C143.354 35.5603 143.594 34.9342 144.098 34.4186C144.58 33.9094 145.157 33.6567 145.817 33.6567C146.634 33.6567 147.396 34.0867 148.082 34.9555C148.538 35.5327 148.916 35.8206 149.216 35.8206C149.522 35.8206 149.819 35.7301 150.117 35.5553C150.53 35.334 151.094 34.8424 151.815 34.0615C151.895 32.3754 151.947 31.1055 151.947 30.2392C151.947 29.0837 151.888 27.4491 151.772 25.3493L151.437 17.653C151.317 16.2385 151.01 15.22 150.528 14.6014C150.147 14.1412 149.654 13.9149 149.047 13.9149C148.821 13.9149 148.563 13.9325 148.281 13.979L148.281 13.1856L148.28 13.1856Z" fill="white"/>
<path d="M176.588 11.3665L172.672 25.1069C172.483 25.7418 172.383 26.1794 172.383 26.4208C172.383 26.5365 172.432 26.6345 172.532 26.7087C172.638 26.8143 172.766 26.8646 172.908 26.8646C173.534 26.8646 174.357 26.3102 175.398 25.2125C176.879 23.6131 178.433 21.3021 180.064 18.297L181.903 12.1096L187.012 11.9398L183.134 25.2728C182.815 26.4007 182.653 27.0495 182.653 27.2079C182.653 27.3173 182.702 27.4242 182.8 27.5424C182.905 27.6543 183.003 27.7196 183.117 27.7196C183.31 27.7196 183.483 27.6342 183.66 27.4745C184.149 27.0822 184.786 26.2963 185.582 25.1094L186.27 25.5935C184.399 28.972 182.338 30.6707 180.086 30.6707C179.249 30.6707 178.593 30.4594 178.115 30.0294C177.636 29.6032 177.403 29.0524 177.403 28.3571C177.403 27.6341 177.565 26.7125 177.9 25.5935L178.899 22.1797C177.144 24.7271 175.872 26.4371 175.086 27.3299C173.86 28.674 172.842 29.5554 172.017 30.0017C171.189 30.4469 170.401 30.6707 169.642 30.6707C168.93 30.6707 168.315 30.4016 167.789 29.876C167.269 29.353 167.019 28.6853 167.019 27.8781C167.019 27.1853 167.183 26.2699 167.522 25.1094L169.802 17.0258C170.181 15.7081 170.362 14.8141 170.362 14.359C170.362 14.1553 170.315 13.978 170.21 13.8271C170.097 13.6712 169.921 13.5492 169.667 13.4612C169.427 13.3757 168.961 13.3229 168.289 13.3229L168.49 12.5622L175.379 11.3702L176.588 11.3702L176.588 11.3665Z" fill="white"/>
<path d="M202.802 12.9645C202.905 12.9645 203.021 13.0538 203.165 13.2411C204.798 12.5031 206.014 12.1322 206.809 12.1322C207.192 12.1322 207.526 12.2126 207.811 12.366C208.094 12.5232 208.239 12.708 208.239 12.9218C208.239 13.0613 208.167 13.3832 208.025 13.8799C207.966 14.0936 207.904 14.3426 207.834 14.6267C207.759 14.9511 207.689 15.302 207.62 15.6716C207.718 15.5572 207.826 15.444 207.939 15.3309C208.109 15.1574 208.215 15.0429 208.259 14.9901L208.323 14.9046C208.335 14.9348 208.345 14.9763 208.345 15.0329C208.345 15.2315 208.191 15.5446 207.874 15.9696L206.916 17.2697C206.687 17.5841 206.413 17.8607 206.086 18.0996L205.553 18.5497C204.927 19.0602 204.502 19.3154 204.273 19.3154C204.229 19.3154 204.096 19.2651 203.868 19.1671L203.804 20.2937L203.676 24.0921L203.698 28.0352C203.698 28.4464 203.627 28.7494 203.484 28.9518C203.456 28.9669 203.428 28.9719 203.399 28.9719L203.379 28.9933L203.356 28.9933C203.199 28.9933 202.959 28.7519 202.629 28.2691C202.279 27.7184 202.099 27.184 202.099 26.6747C202.099 26.4899 202.166 26.0876 202.287 25.4765C202.373 24.9673 202.44 24.277 202.481 23.4081L202.612 19.1884L202.653 17.9965L202.715 12.9872C202.745 12.9708 202.772 12.9645 202.802 12.9645ZM204.742 14.6255C205.196 14.3677 205.474 14.2206 205.574 14.1804C205.657 14.1515 205.814 14.1351 206.043 14.1351L206.063 14.1351L206.063 14.1552L206.086 14.1552L206.109 14.1552L206.173 14.1552L206.15 13.1582C206.065 13.1418 205.964 13.133 205.851 13.133L205.831 13.133L205.808 13.133L205.785 13.133L205.765 13.133L205.74 13.133L205.723 13.1582L205.697 13.1582L205.677 13.1582L205.655 13.1582L204.908 13.4976C204.738 13.5844 204.419 13.6246 203.95 13.6246L203.503 13.6246C203.658 13.8811 203.779 14.1024 203.864 14.2873C203.923 14.4004 204.006 14.5928 204.122 14.8606L204.122 14.8845C204.435 14.7676 204.644 14.6821 204.742 14.6255ZM204.827 15.6263C204.768 15.6263 204.712 15.6352 204.655 15.6502C204.539 15.6653 204.466 15.6716 204.421 15.6716L204.399 15.6716L204.378 15.6716L204.332 15.6716L204.314 15.6716C204.297 15.6578 204.285 15.6502 204.27 15.6502L204.226 15.6502L204.206 15.6502L204.162 15.6502L204.142 15.6502L204.122 15.6502L203.991 17.3992C204.348 16.9403 204.626 16.3518 204.827 15.6263ZM205.868 16.9918L206.085 15.351C205.274 16.3443 204.66 17.1691 204.253 17.8217C204.907 17.5539 205.443 17.2747 205.868 16.9918ZM205.144 27.2016C205.672 26.9187 206.085 26.5993 206.381 26.2422C206.693 25.8726 207.121 25.1898 207.661 24.1952C207.05 24.4945 206.608 24.6416 206.337 24.6416C206.013 24.6416 205.68 24.3071 205.338 23.6382C205.436 23.6558 205.544 23.6621 205.657 23.6621C206.438 23.6621 207.29 23.3151 208.213 22.6185C208.272 22.5619 208.366 22.4903 208.491 22.406L208.427 22.0225C207.873 21.9069 207.461 21.629 207.192 21.1889L207.257 21.1034C208.491 20.6231 209.423 19.7115 210.052 18.3774C209.609 18.5484 209.185 18.9093 208.772 19.4625C208.386 19.9894 208.074 20.2522 207.834 20.2522C207.676 20.2522 207.519 20.139 207.365 19.9114C207.22 19.6989 207.151 19.4688 207.151 19.2274C207.151 18.7723 207.239 18.4051 207.426 18.1197C207.468 18.0493 207.512 18.0141 207.555 18.0141C207.614 18.0141 207.648 18.0342 207.663 18.0769L207.812 18.4189C207.886 18.5585 208.026 18.6314 208.24 18.6314C208.593 18.6314 208.977 18.5095 209.389 18.2681C210.098 17.8707 210.656 17.6708 211.051 17.6708C211.235 17.6708 211.412 17.7349 211.584 17.8644C211.84 18.0329 211.968 18.1838 211.968 18.3121C211.968 18.3674 211.906 18.4743 211.774 18.6302L211.499 18.9495C211.244 19.2765 210.79 19.7253 210.136 20.2899C210.391 20.2635 210.568 20.2497 210.667 20.2497C211.207 20.2497 211.479 20.4005 211.479 20.696C211.479 20.867 211.022 21.2455 210.113 21.8264L210.091 21.8264L210.091 21.8477L210.068 21.8477L210.068 21.8691L210.05 21.8691L210.03 21.8905L210.005 21.8905L210.005 21.9106L209.982 21.9106L209.96 21.9358C210.048 22.0489 210.094 22.1835 210.11 22.3394C210.947 22.0841 211.547 21.9559 211.902 21.9559C212.242 21.9559 212.544 22.0414 212.796 22.2111C213.037 22.3683 213.157 22.5594 213.157 22.787C213.157 22.9442 213.037 23.0209 212.796 23.0209L211.286 23.1051C211.171 23.1215 211.006 23.1491 210.792 23.1906C210.537 23.2635 210.195 23.3541 209.769 23.4698C209.64 23.7954 209.498 24.106 209.346 24.4065C210.508 24.4492 211.416 24.7133 212.072 25.1936C212.796 25.7355 213.157 26.3415 213.157 27.0079C213.157 27.4493 212.98 27.6655 212.624 27.6655C212.428 27.6655 212.233 27.6102 212.047 27.4958L211.153 26.9199C211.016 26.8206 210.656 26.715 210.087 26.6006L210.064 26.5138L210.108 26.4736L211.088 26.3881C210.42 25.7066 209.745 25.2011 209.065 24.8767C208.539 25.7858 207.991 26.4082 207.421 26.7515C206.867 27.0922 206.107 27.277 205.14 27.3022L205.14 27.2016L205.144 27.2016ZM212.286 12.2591L212.311 12.2591L212.331 12.2591L214.31 11.6833C214.74 11.5538 215.194 11.4934 215.678 11.4934C216.206 11.4934 216.68 11.6192 217.105 11.8782C217.518 12.1171 217.724 12.4025 217.724 12.7294C217.724 12.7709 217.66 13.177 217.53 13.9453C217.518 14.0295 217.496 14.164 217.469 14.3501C217.425 14.5362 217.397 14.6708 217.383 14.7563L217.383 14.7764L217.383 14.7978L217.383 14.8392C217.368 14.8971 217.363 14.9449 217.363 14.9901C217.363 15.0882 217.353 15.1888 217.341 15.2869C217.325 15.4139 217.315 15.5434 217.315 15.6716L217.168 18.6541L217.168 19.0388L217.168 19.9994C217.183 20.2811 217.2 20.5665 217.21 20.8507C217.21 21.1348 217.217 21.4152 217.232 21.683C217.261 22.323 217.286 22.8926 217.315 23.388C217.33 23.5729 217.341 23.7489 217.341 23.9211C217.382 24.4593 217.405 24.8088 217.405 24.966C217.431 25.181 217.461 25.4061 217.488 25.6488C217.559 26.2561 217.622 26.8319 217.681 27.3751C217.723 27.9283 217.743 28.3483 217.743 28.6312C217.743 29.5654 217.509 30.0382 217.04 30.0382C216.731 30.0382 216.18 29.6585 215.399 28.9091C214.701 28.2552 213.992 27.7171 213.27 27.2896L213.245 27.1601C213.743 27.2594 214.191 27.3072 214.588 27.3072L214.885 27.3072C215.328 27.3072 215.548 27.1463 215.548 26.8194L215.633 23.2371L215.653 17.0786C214.885 17.276 214.332 17.4407 213.991 17.5677C213.664 17.6821 213.218 17.8732 212.648 18.1436C212.677 18.043 212.72 17.965 212.776 17.9097C212.833 17.8808 213.032 17.7676 213.374 17.5677L213.394 17.5438C213.551 17.4344 213.674 17.3288 213.76 17.227L213.416 17.227C213.185 17.227 212.95 17.183 212.692 17.0975C212.609 17.5954 212.437 17.8456 212.184 17.8456C212.024 17.8456 211.826 17.696 211.584 17.3992C211.198 16.885 211.022 16.4575 211.051 16.1192L211.051 15.5849C211.093 14.5186 211.224 13.6686 211.437 13.0286L211.84 11.7487L212.009 12.0265C212.038 12.0819 212.058 12.1674 212.076 12.2793C212.143 12.2793 212.214 12.2717 212.286 12.2591ZM214.672 13.5391C215.087 13.5391 215.291 13.6686 215.291 13.9251C215.291 14.0635 215.109 14.335 214.739 14.7324C214.484 14.9901 214.12 15.4302 213.654 16.0564C214.049 15.9394 214.378 15.8841 214.631 15.8841C214.82 15.8841 215.144 15.9558 215.61 16.0953C215.598 15.7709 215.584 15.439 215.566 15.0957L215.566 14.6708C215.554 14.5563 215.549 14.4344 215.549 14.3074C215.534 14.2081 215.526 14.1075 215.526 14.0069C215.509 13.8384 215.504 13.6561 215.504 13.4562C215.548 12.6879 215.398 12.3044 215.055 12.3044L214.972 12.3044L214.014 12.7307C213.872 12.8011 213.643 12.84 213.331 12.84C213.045 12.84 212.712 12.8162 212.329 12.7722C212.468 13.2286 212.576 13.7189 212.648 14.2445C213.631 13.7717 214.304 13.5391 214.672 13.5391ZM213.673 14.965C213.459 15.0241 213.289 15.0505 213.16 15.0505C213.106 15.0505 212.983 15.0304 212.799 14.9889C212.757 14.9889 212.713 14.9826 212.671 14.9637L212.756 16.1808C213.082 15.8564 213.389 15.4528 213.673 14.965Z" fill="white"/>
<path d="M223.852 19.763C224.069 19.7064 224.282 19.6473 224.496 19.5895C225.135 19.4361 225.518 19.3355 225.645 19.2953L227.392 18.6943C227.52 18.6528 227.691 18.6037 227.905 18.5484C228.145 18.4604 228.381 18.3837 228.608 18.312C228.791 18.2567 228.976 18.2001 229.162 18.1435C229.871 17.6594 230.343 17.3124 230.572 17.0987C230.809 16.8849 231.004 16.6246 231.146 16.309C230.306 16.6649 229.744 16.9566 229.462 17.1804L228.521 17.9298L227.99 18.3359C227.75 18.5333 227.57 18.6327 227.457 18.6327C227.13 18.6326 226.952 18.185 226.922 17.291C227.589 16.7617 228.073 16.3719 228.373 16.1167C228.669 15.8463 229.043 15.4855 229.48 15.0291C229.169 15.0743 228.903 15.0944 228.695 15.0944C228.579 15.0944 228.501 15.0856 228.458 15.0743L227.734 14.9637C227.407 14.9083 227.213 14.7952 227.157 14.6254L227.329 14.5173L231.145 13.2587C231.4 13.1757 231.661 13.1304 231.934 13.1304C232.513 13.1304 232.807 13.2813 232.807 13.5818C232.807 13.7503 232.452 14.0609 231.739 14.5161C231.527 14.6858 231.329 14.8568 231.144 15.0265C231.072 15.0831 230.938 15.19 230.739 15.3472C230.611 15.4616 230.476 15.5735 230.334 15.6879C230.388 15.6741 230.44 15.6665 230.481 15.6665C230.982 15.581 231.306 15.5169 231.463 15.4729C231.858 15.4012 232.149 15.3685 232.337 15.3685C232.577 15.3685 232.814 15.439 233.037 15.581C233.269 15.737 233.381 15.8878 233.381 16.0261C233.381 16.1833 232.978 16.6033 232.167 17.2885C232.263 17.2722 232.394 17.2546 232.551 17.2219C232.59 17.2093 232.628 17.203 232.656 17.203C232.683 17.1854 232.713 17.1766 232.742 17.1766C232.912 17.1364 233.017 17.1138 233.059 17.1138C233.19 17.1138 233.474 17.193 233.914 17.3501C234.143 17.4231 234.321 17.5224 234.447 17.6469L234.597 17.9461L233.339 18.2441L232.337 18.3925C231.642 18.5346 231.188 18.6352 230.972 18.6892C230.758 18.7471 230.439 18.8565 230.011 19.0086C229.728 19.2387 229.542 19.4575 229.459 19.6712C229.374 19.885 229.324 20.2408 229.309 20.7362C230.049 20.3665 230.582 20.1201 230.908 19.9918C231.222 19.8787 231.516 19.8196 231.804 19.8196C232.157 19.8196 232.499 19.9705 232.826 20.266C233.01 20.4231 233.109 20.9977 233.123 21.9936L233.167 25.1483L233.273 27.878L233.273 28.1974C233.273 29.6043 232.983 30.3085 232.399 30.3085C232.03 30.3085 231.566 29.8382 230.992 28.9002C230.796 28.5897 230.594 28.2892 230.397 28.0063C230.154 27.6793 229.82 27.2305 229.392 26.6634L229.586 26.7049C230.266 27.0469 230.794 27.36 231.163 27.6429C231.276 27.7573 231.332 27.8 231.332 27.7724C231.433 27.7145 231.516 27.4316 231.588 26.9174L231.588 25.5959L231.588 25.5758L231.588 25.5531L231.588 25.5116L231.588 25.4274L231.588 25.2338C231.588 25.0502 231.595 24.8666 231.613 24.6818C230.345 25.8612 229.577 26.4484 229.309 26.4484C229.238 26.4484 229.126 26.4232 228.969 26.3667L228.969 26.8558L228.969 26.8784L228.969 26.9186L228.969 26.984L228.969 27.1324C228.969 27.2594 228.974 27.3801 228.991 27.4945L228.991 27.9233C228.991 28.3885 228.891 28.7619 228.695 29.031C228.28 28.9744 227.931 28.6965 227.648 28.1999C227.366 27.6869 227.221 27.0934 227.221 26.4081C227.221 24.8037 227.548 23.1214 228.203 21.3561C228.319 21.0317 228.434 20.7085 228.564 20.3992C228.706 20.0283 228.847 19.6662 228.991 19.3104C228.878 19.3519 228.755 19.4059 228.628 19.4587C228.542 19.4876 228.466 19.5241 228.394 19.5656C228.365 19.5656 228.337 19.5744 228.309 19.5857C228.296 19.5857 228.28 19.597 228.267 19.6109L227.01 20.2685C226.626 20.4835 226.199 20.5916 225.727 20.5916C225.302 20.5916 224.669 20.3414 223.834 19.8435L223.852 19.763ZM229.353 11.2142C230.007 11.2142 230.579 11.3299 231.06 11.555C231.556 11.7851 231.807 12.0529 231.807 12.3647C231.807 12.708 231.583 12.8752 231.146 12.8752C230.943 12.8752 230.768 12.8274 230.613 12.7268C230.596 12.7268 230.584 12.7193 230.572 12.708L230.525 12.708C230.515 12.6929 230.499 12.6816 230.484 12.6665C230.469 12.6665 230.457 12.6589 230.442 12.6438L230.417 12.6438L229.098 13.0902L229.076 13.0902L229.055 13.0902L228.97 13.0902L228.97 12.9821C229.294 12.7822 229.552 12.5923 229.738 12.4087C229.709 12.3811 229.682 12.3496 229.653 12.322L229.63 12.3006L228.756 11.8115C228.671 11.7687 228.565 11.7034 228.434 11.6166C228.634 11.35 228.941 11.2142 229.353 11.2142ZM229.908 23.5351C229.722 23.5778 229.578 23.6005 229.48 23.6005C229.424 23.6005 229.346 23.5942 229.244 23.5778C229.187 23.5627 229.141 23.5552 229.097 23.5552L229.074 24.7912C229.431 24.38 229.709 23.9626 229.908 23.5351ZM230.588 22.0652C230.774 22.0652 231.094 22.2123 231.549 22.5116L231.549 21.9596C231.549 21.2894 231.402 20.955 231.102 20.955C231.046 20.955 230.943 21.0116 230.803 21.1285C230.378 21.4831 230.022 21.6616 229.739 21.6616C229.526 21.6616 229.353 21.6528 229.226 21.6365L229.143 22.7681C229.739 22.3004 230.222 22.0652 230.588 22.0652ZM230.294 24.4731C230.814 24.1638 231.242 23.8708 231.574 23.6005L231.549 22.577C231.392 22.8863 231.288 23.0749 231.229 23.1315L230.313 24.3448L230.313 24.3674C230.3 24.3674 230.293 24.375 230.293 24.3888C230.273 24.4039 230.261 24.424 230.249 24.4542C230.236 24.4668 230.222 24.4907 230.207 24.5171C230.237 24.502 230.262 24.4894 230.294 24.4731ZM236.578 18.8464C237.163 18.4604 237.604 18.1209 237.902 17.8242C238.2 17.5274 238.548 17.0999 238.946 16.5442C238.234 16.8283 237.698 17.0584 237.328 17.2257C236.984 17.3828 236.652 17.5614 236.325 17.7588C236.109 17.8883 235.96 17.9512 235.859 17.9512C235.503 17.9512 235.194 17.6029 234.939 16.9075C235.31 15.8413 235.56 14.9901 235.685 14.3488C235.828 13.695 235.897 13.0638 235.897 12.4515L235.897 11.8781C235.884 11.648 235.87 11.4079 235.86 11.1514C236.466 11.4506 236.872 11.765 237.074 12.0881C237.285 12.4024 237.406 12.9142 237.437 13.6221C237.675 13.5403 237.937 13.4385 238.223 13.3266C238.294 13.2989 238.355 13.2713 238.414 13.2424C238.841 13.314 239.197 13.4121 239.48 13.5404C239.766 13.6686 239.908 13.8031 239.908 13.9465C239.908 14.0433 239.802 14.1564 239.588 14.2872C239.375 14.4268 239.132 14.5274 238.862 14.584C238.591 14.6556 238.101 14.6896 237.39 14.6896L237.285 14.6896L236.88 16.0764L238.65 15.5672C238.807 15.5081 239.019 15.454 239.289 15.3924C239.361 15.3648 239.431 15.3434 239.503 15.3321L239.758 15.2667C240.797 15.3635 241.312 15.6288 241.312 16.0551C241.312 16.255 241.108 16.5241 240.696 16.8648C240.212 17.2936 239.694 17.7952 239.139 18.3787C239.608 18.4088 239.845 18.5358 239.845 18.7647C239.845 18.9495 239.752 19.0903 239.564 19.1897L238.248 19.8938C238.162 19.9504 238.014 20.0987 237.82 20.3414C238.643 20.0711 239.253 19.934 239.65 19.934C239.879 19.934 240.082 19.9919 240.271 20.1063C240.47 20.2358 240.565 20.3703 240.565 20.5124C240.565 20.6117 240.47 20.7299 240.271 20.8745C240.082 21.0141 239.701 21.2429 239.117 21.5547C238.694 21.7685 238.279 22.0967 237.882 22.5342L237.857 22.5581C237.82 22.587 237.803 22.6071 237.82 22.6222C237.82 22.6499 237.867 22.6713 237.968 22.6851C238.11 22.6713 238.253 22.6637 238.393 22.6637L238.545 22.6637L238.694 22.6637C239.828 22.6637 240.398 22.8775 240.398 23.305C240.398 23.4458 240.344 23.5451 240.248 23.603C240.135 23.6596 239.821 23.7438 239.31 23.857C239.18 23.8846 239.038 23.9286 238.885 23.984L237.968 24.3473L237.903 24.3046C237.945 24.2769 237.983 24.2405 238.012 24.1977C238.194 24.0292 238.336 23.9136 238.434 23.857C237.468 23.6885 236.986 23.4043 236.986 23.0057C236.986 22.8222 237.116 22.5996 237.372 22.3444C237.585 22.1193 237.833 21.8251 238.118 21.4705C238.044 21.4554 237.976 21.4491 237.905 21.4491C237.665 21.4215 237.451 21.3863 237.266 21.3435C236.851 22.323 236.573 23.1026 236.434 23.6885C236.289 24.2983 236.217 24.9672 236.217 25.6915C236.217 26.4861 236.397 27.0255 236.753 27.3097C237.25 27.7648 237.934 27.9924 238.801 27.9924C239.27 27.9924 239.83 27.9497 240.486 27.8642C241.135 27.7938 241.663 27.702 242.06 27.5863C242.346 27.5008 242.488 27.2468 242.488 26.8193C242.488 26.3654 242.217 25.562 241.677 24.4102L241.785 24.4102C242.282 25.2212 242.625 25.7178 242.808 25.9039L244.318 27.5875C244.461 27.7585 244.535 27.922 244.535 28.0754C244.535 28.7443 243.705 29.1743 242.04 29.3592L241.424 29.4396C241.122 29.456 240.631 29.4774 239.953 29.5063C238.887 29.4786 238.062 29.3755 237.48 29.207C236.88 29.0373 236.377 28.7443 235.967 28.3332C235.282 27.6932 234.941 26.764 234.941 25.5418C234.941 25.0326 235 24.4177 235.113 23.7099C235.244 22.9554 235.44 22.0275 235.711 20.9173C235.652 20.9173 235.574 20.9223 235.474 20.9374L235.433 20.9374L235.394 20.9374L235.369 20.9374L235.349 20.9374L235.326 20.9374C235.112 20.9374 234.898 20.789 234.687 20.491L234.193 19.8737L234.193 19.7882C234.975 19.6549 235.771 19.3456 236.578 18.8464ZM237.305 26.7325C237.346 26.7061 237.388 26.676 237.436 26.647C237.461 26.6206 237.495 26.5917 237.541 26.5615C237.568 26.5477 237.595 26.5288 237.624 26.4974C238.067 26.2158 238.284 25.9593 238.284 25.7329C238.284 25.6776 238.264 25.6386 238.22 25.6248L237.646 25.1961L237.623 25.1961L237.623 25.1797L237.603 25.1797C237.603 25.1634 237.593 25.1546 237.58 25.1546L237.58 25.1332C237.565 25.1332 237.551 25.1269 237.539 25.1105C237.524 25.098 237.507 25.0892 237.492 25.0892C237.492 25.0753 237.485 25.069 237.475 25.069C237.475 25.054 237.465 25.0464 237.45 25.0464L237.475 24.9182C237.929 24.8754 238.337 24.8541 238.709 24.8541C239.207 24.8541 239.626 24.9534 239.964 25.1508C240.305 25.3482 240.48 25.5972 240.48 25.8977C240.48 26.1957 240.251 26.3428 239.797 26.3428L239.774 26.3428L239.752 26.3428L239.732 26.3428L239.709 26.3428C239.694 26.3428 239.686 26.3352 239.686 26.3214L239.664 26.3214L239.641 26.3214L239.621 26.3214L239.598 26.3214C238.761 26.3352 237.965 26.5138 237.214 26.8558L237.168 26.8344C237.222 26.8092 237.263 26.7753 237.305 26.7325Z" fill="white"/>
<path d="M251.509 17.945L252.705 14.8306C252.999 14.0774 253.154 13.5229 253.154 13.1683C253.154 12.9571 252.999 12.6201 252.705 12.1687L252.744 12.1687L252.769 12.1474L252.833 12.1474L252.853 12.1247L252.876 12.1247L252.899 12.1247C252.982 12.1247 253.161 12.1826 253.432 12.2983L254.132 12.5736C254.844 12.8716 255.198 13.2199 255.198 13.6172C255.198 13.8159 255.066 14.2094 254.796 14.7903L253.688 17.1152C252.949 18.6479 251.854 20.1052 250.405 21.4833C250.153 21.7385 249.916 21.9246 249.7 22.0377C249.501 22.1371 249.143 22.2741 248.615 22.4426L248.548 22.3571C249.953 20.8797 250.94 19.4111 251.509 17.945ZM252.491 19.3508C252.718 19.6802 252.87 20.0046 252.938 20.334C253.009 20.6748 253.043 21.2054 253.043 21.9321L253.043 22.4652C253.373 21.8542 253.594 21.4191 253.703 21.1626C253.843 20.8345 253.995 20.4396 254.15 19.9707C254.15 19.9832 254.157 19.9971 254.175 20.0096L254.175 20.0549L254.175 20.0964L254.198 20.0964L254.198 20.1178L254.198 20.1404L254.198 20.1643C254.198 20.29 254.141 20.4673 254.023 20.6936C253.969 20.8093 253.861 21.1915 253.703 21.8454L253.299 23.7226C253.159 24.3035 253.087 24.809 253.087 25.234C253.087 25.889 253.062 26.3631 253.023 26.6636C252.923 27.2734 252.711 27.5802 252.382 27.5802C252.112 27.5802 251.864 27.2897 251.638 26.7088C251.395 26.1392 251.274 25.5433 251.274 24.9158C251.274 24.2067 251.36 23.4385 251.529 22.6136C251.702 21.7762 251.998 20.7024 252.423 19.3948L252.491 19.3508ZM258.032 14.4282C258.19 14.0586 258.327 13.6952 258.44 13.3406C258.556 12.9571 258.61 12.6805 258.61 12.5082C258.61 12.3096 258.509 11.9475 258.31 11.4219C258.792 11.5376 259.192 11.7199 259.504 11.9776C259.818 12.2329 259.973 12.5158 259.973 12.8289C259.973 13.1696 259.903 13.5418 259.761 13.9378C259.631 14.3239 259.336 15.0116 258.862 16.0062C259.574 15.8201 260.115 15.6655 260.483 15.5372C260.829 15.424 261.264 15.2468 261.807 15.0041C262.688 14.6357 263.369 14.4521 263.855 14.4521C264.209 14.4521 264.551 14.5502 264.878 14.7514C265.118 14.906 265.238 15.038 265.238 15.1537C265.238 15.453 264.551 15.7082 263.17 15.9182C262.959 15.9635 262.719 16.0125 262.448 16.0703C262.105 16.1407 261.748 16.225 261.38 16.3256C261.197 16.8939 261.104 17.3289 261.104 17.6244C261.104 17.7552 261.109 17.8457 261.124 17.9023L261.191 18.414C261.204 18.4706 261.209 18.619 261.209 18.8604L261.209 19.4363C262.404 18.7259 263.419 18.3713 264.259 18.3713C264.544 18.3713 264.8 18.4279 265.027 18.5398C265.267 18.668 265.388 18.8038 265.388 18.9472C265.388 19.1006 265.177 19.2879 264.749 19.5004C263.059 20.378 262.212 21.1274 262.212 21.736C262.212 22.3785 262.779 22.7104 263.916 22.7381C264.64 22.7544 265.279 22.8538 265.833 23.0373C266.376 23.2347 266.644 23.4586 266.644 23.6975C266.644 23.9125 266.494 24.0659 266.198 24.1677C266.154 24.1815 266.012 24.2017 265.77 24.2306C265.471 24.2872 265.168 24.3362 264.854 24.3789C264.714 24.3953 264.568 24.4116 264.429 24.4443C264.266 24.4582 264.119 24.4795 263.977 24.5097C263.54 24.565 262.854 24.8417 261.934 25.3383L261.893 25.2314C262.642 24.7486 263.176 24.3576 263.489 24.0596C262.809 23.8295 262.34 23.5981 262.085 23.3555C261.83 23.1279 261.704 22.8311 261.704 22.4627C261.704 21.9636 261.893 21.1601 262.276 20.0524C261.893 20.1517 261.532 20.2007 261.191 20.2007L261.105 20.2007C261.031 21.0947 260.99 21.785 260.977 22.2704C260.946 22.7683 260.933 23.2146 260.933 23.6107C260.933 23.8383 260.941 23.9929 260.953 24.081L261.059 27.3815L261.059 28.0014C261.059 28.3711 261.012 28.6904 260.912 28.9633C260.799 29.2311 260.669 29.3669 260.528 29.3669C260.459 29.3669 260.25 29.1468 259.912 28.7043C259.343 28.0228 259.057 27.3086 259.057 26.5517C259.057 26.4548 259.065 26.3605 259.077 26.2725L259.443 23.8257L259.61 21.1186C259.639 20.5088 259.711 19.8826 259.824 19.2414C259.925 18.6592 260.112 17.8042 260.379 16.6839C259.598 17.0687 259.021 17.3818 258.652 17.6219C258.269 17.8784 257.879 18.1915 257.48 18.5599C257.169 18.873 256.911 19.0276 256.712 19.0276C256.202 19.0276 255.895 18.5184 255.798 17.4924C256.861 16.4174 257.607 15.3914 258.032 14.4282Z" fill="white"/>
<path d="M272.609 18.1135C274.482 18.1135 276 16.5952 276 14.7224C276 12.8495 274.482 11.3313 272.609 11.3313C270.736 11.3313 269.218 12.8495 269.218 14.7224C269.218 16.5952 270.736 18.1135 272.609 18.1135Z" stroke="white" stroke-width="0.348" stroke-miterlimit="10"/>
<path d="M273.724 16.8045C273.653 16.5908 273.629 16.4374 273.629 16.0879L273.629 15.7308C273.629 15.1612 273.312 15.0229 272.936 15.0229L271.629 15.0229L271.629 16.8045L271.116 16.8045L271.116 12.6389L273.093 12.6389C273.938 12.6389 274.252 13.2399 274.252 13.7643C274.252 14.0736 274.139 14.3917 273.933 14.5866C273.82 14.6934 273.704 14.745 273.596 14.7903C273.753 14.8368 273.876 14.8695 274.001 15.0857C274.133 15.3045 274.143 15.5635 274.143 15.6905L274.143 16.0011C274.143 16.1796 274.169 16.3708 274.187 16.4839C274.216 16.6147 274.251 16.6587 274.334 16.719L274.334 16.8045L273.724 16.8045ZM272.997 13.0626L271.629 13.0626L271.629 14.6105L272.948 14.6105C273.433 14.6105 273.714 14.2597 273.714 13.8208C273.714 13.4285 273.5 13.0626 272.997 13.0626Z" fill="white"/>
</svg>
