<svg width="43" height="42" viewBox="0 0 43 42" fill="none" xmlns="http://www.w3.org/2000/svg">
<rect x="0.689453" y="0.287109" width="41.6094" height="41.6094" rx="7" fill="#E31019"/>
<path d="M21.4941 10.9668C19.3821 10.9667 17.3553 11.809 15.8544 13.3105C14.3535 14.8121 13.4996 16.8516 13.4785 18.9858C13.4785 24.5343 20.5423 30.7105 20.8429 30.9737C21.0244 31.1306 21.2553 31.2168 21.4941 31.2168C21.733 31.2168 21.9639 31.1306 22.1454 30.9737C22.4961 30.7105 29.5098 24.5343 29.5098 18.9858C29.4886 16.8516 28.6348 14.8121 27.1339 13.3105C25.633 11.809 23.6062 10.9667 21.4941 10.9668ZM21.4941 22.1043C20.8006 22.1043 20.1225 21.8964 19.5458 21.507C18.9692 21.1176 18.5197 20.5642 18.2542 19.9167C17.9888 19.2691 17.9194 18.5566 18.0547 17.8692C18.19 17.1818 18.524 16.5503 19.0144 16.0547C19.5049 15.5591 20.1297 15.2216 20.81 15.0849C21.4902 14.9481 22.1954 15.0183 22.8361 15.2865C23.4769 15.5548 24.0246 16.009 24.41 16.5917C24.7953 17.1745 25.001 17.8596 25.001 18.5605C25.001 19.5004 24.6315 20.4017 23.9738 21.0663C23.3162 21.7309 22.4242 22.1043 21.4941 22.1043Z" fill="white"/>
</svg>
