<svg width="19" height="19" viewBox="0 0 19 19" fill="none" xmlns="http://www.w3.org/2000/svg">
<path fill-rule="evenodd" clip-rule="evenodd" d="M17.4272 18.4703L13.3824 14.4245L13.1734 14.5868C11.5699 15.832 9.5523 16.4191 7.5313 16.2286C5.51029 16.0382 3.63781 15.0845 2.29504 13.5617C0.952266 12.0389 0.240164 10.0614 0.303719 8.03191C0.367273 6.0024 1.20171 4.07342 2.63712 2.63765C4.07254 1.2019 6.00102 0.36729 8.02998 0.303722C10.0589 0.240155 12.0359 0.952405 13.5583 2.29549C15.0807 3.63858 16.0342 5.51154 16.2246 7.53309C16.415 9.55465 15.8281 11.5728 14.5832 13.1767L14.421 13.3856L18.4581 17.424L18.4658 17.4312C18.5381 17.4985 18.596 17.5797 18.6362 17.6699C18.6763 17.7601 18.6979 17.8574 18.6997 17.9562C18.7014 18.0549 18.6833 18.153 18.6463 18.2445C18.6093 18.3361 18.5543 18.4192 18.4845 18.4891C18.4147 18.5589 18.3316 18.6139 18.24 18.6509C18.1485 18.6879 18.0505 18.706 17.9518 18.7043C17.8532 18.7025 17.7558 18.6809 17.6657 18.6407C17.5755 18.6006 17.4945 18.5425 17.4272 18.4703ZM14.2935 10.7728C14.6206 9.9828 14.789 9.13608 14.789 8.28099C14.789 6.55405 14.1031 4.89784 12.8823 3.67669C11.6614 2.45554 10.0056 1.76949 8.27899 1.76949C6.55241 1.76949 4.89655 2.45554 3.6757 3.67669C2.45484 4.89783 1.76899 6.55405 1.76899 8.28098C1.76899 9.13607 1.93737 9.98279 2.26452 10.7728C2.59167 11.5628 3.07119 12.2806 3.6757 12.8853C4.2802 13.4899 4.99786 13.9696 5.78769 14.2968C6.57753 14.6241 7.42407 14.7925 8.27899 14.7925C9.1339 14.7925 9.98044 14.6241 10.7703 14.2968C11.5601 13.9696 12.2778 13.4899 12.8823 12.8853C13.4868 12.2806 13.9663 11.5628 14.2935 10.7728Z" fill="white"/>
</svg>
