<svg width="76" height="49" viewBox="0 0 76 49" fill="none" xmlns="http://www.w3.org/2000/svg">
<path d="M16.4428 48.6016V45.3708C16.4808 44.8212 16.2814 44.2817 15.8957 43.89C15.5099 43.4984 14.9751 43.2924 14.4276 43.3247C13.706 43.2772 13.016 43.6279 12.6267 44.2401C12.2717 43.6462 11.6218 43.2949 10.933 43.3247C10.3332 43.2942 9.76215 43.5852 9.43222 44.0893V43.4539H8.31738V48.6016H9.44294V45.7693C9.39447 45.4129 9.50687 45.0533 9.74948 44.7888C9.99209 44.5242 10.3396 44.3822 10.6971 44.4016C11.4368 44.4016 11.812 44.8862 11.812 45.7585V48.6232H12.9375V45.7693C12.891 45.4133 13.0041 45.0549 13.2463 44.7908C13.4885 44.5268 13.8347 44.3842 14.1917 44.4016C14.9528 44.4016 15.3173 44.8862 15.3173 45.7585V48.6232L16.4428 48.6016ZM33.0957 43.4539H31.2627V41.8924H30.1371V43.4539H29.1188V44.477H30.1586V46.8462C30.1586 48.0416 30.6195 48.7524 31.938 48.7524C32.4306 48.754 32.9137 48.6159 33.3316 48.3539L33.01 47.3955C32.711 47.5746 32.3717 47.6747 32.0238 47.6862C31.4878 47.6862 31.2841 47.3416 31.2841 46.8247V44.477H33.1065L33.0957 43.4539ZM42.604 43.3247C42.0503 43.3083 41.5321 43.5976 41.2534 44.0785V43.4539H40.1492V48.6016H41.2641V45.7155C41.2641 44.8647 41.6285 44.3908 42.336 44.3908C42.5745 44.3876 42.8112 44.4315 43.0328 44.5201L43.3758 43.4432C43.1212 43.3517 42.853 43.3043 42.5826 43.3032L42.604 43.3247ZM28.229 43.8632C27.598 43.4862 26.8725 43.2993 26.1387 43.3247C24.8417 43.3247 23.9948 43.9493 23.9948 44.9724C23.9948 45.8124 24.6165 46.3293 25.7635 46.4908L26.2995 46.5662C26.9105 46.6524 27.2 46.8139 27.2 47.1047C27.2 47.5032 26.7926 47.7293 26.0315 47.7293C25.4193 47.7471 24.819 47.5574 24.3271 47.1908L23.7911 48.0632C24.4405 48.5187 25.2183 48.7527 26.0101 48.7308C27.4894 48.7308 28.347 48.0308 28.347 47.0508C28.347 46.0708 27.6716 45.6724 26.5568 45.5108L26.0208 45.4355C25.5384 45.3708 25.1525 45.2739 25.1525 44.9293C25.1525 44.5847 25.517 44.3262 26.128 44.3262C26.6928 44.3328 27.2464 44.4848 27.7359 44.7678L28.229 43.8632ZM58.0885 43.3247C57.5348 43.3083 57.0165 43.5976 56.7378 44.0785V43.4539H55.6337V48.6016H56.7485V45.7155C56.7485 44.8647 57.113 44.3908 57.8205 44.3908C58.059 44.3876 58.2957 44.4315 58.5173 44.5201L58.8603 43.4432C58.6057 43.3517 58.3375 43.3043 58.0671 43.3032L58.0885 43.3247ZM43.7242 46.017C43.6974 46.7485 43.9787 47.4574 44.4989 47.9698C45.0192 48.4823 45.7303 48.7507 46.4577 48.7093C47.1271 48.7435 47.7849 48.5245 48.3015 48.0955L47.7655 47.1908C47.3801 47.4861 46.9102 47.6485 46.4256 47.6539C45.5711 47.5845 44.9128 46.8675 44.9128 46.0062C44.9128 45.145 45.5711 44.428 46.4256 44.3585C46.9102 44.364 47.3801 44.5264 47.7655 44.8216L48.3015 43.917C47.7849 43.488 47.1271 43.2689 46.4577 43.3032C45.7303 43.2617 45.0192 43.5302 44.4989 44.0426C43.9787 44.555 43.6974 45.264 43.7242 45.9955V46.017ZM54.1651 46.017V43.4539H53.0503V44.0785C52.6662 43.5821 52.0678 43.3015 51.4423 43.3247C49.9623 43.3247 48.7624 44.5301 48.7624 46.017C48.7624 47.5039 49.9623 48.7093 51.4423 48.7093C52.0678 48.7325 52.6662 48.452 53.0503 47.9555V48.5801H54.1651V46.017ZM50.0166 46.017C50.0662 45.172 50.779 44.5217 51.621 44.5535C52.463 44.5852 53.1253 45.2873 53.1117 46.1337C53.0981 46.9801 52.4136 47.6603 51.571 47.6647C51.1419 47.6701 50.7301 47.4953 50.435 47.1825C50.1399 46.8696 49.9882 46.4471 50.0166 46.017ZM36.5635 43.3247C35.0835 43.3455 33.9004 44.5678 33.9212 46.0547C33.9419 47.5416 35.1585 48.7301 36.6386 48.7093C37.4097 48.7491 38.1681 48.4996 38.7664 48.0093L38.2304 47.1801C37.8072 47.5211 37.2829 47.7106 36.7404 47.7185C35.9742 47.7847 35.2946 47.2262 35.2075 46.4585H39.013C39.013 46.3185 39.013 46.1785 39.013 46.0278C39.013 44.4124 38.016 43.3355 36.5796 43.3355L36.5635 43.3247ZM36.5635 44.3262C36.9005 44.319 37.2264 44.4466 37.4697 44.6809C37.7129 44.9152 37.8536 45.237 37.8606 45.5755H35.1807C35.2211 44.8565 35.8257 44.3017 36.5421 44.3262H36.5635ZM64.4935 46.0278V41.3862H63.4215V44.0785C63.0374 43.5821 62.439 43.3015 61.8136 43.3247C60.3335 43.3247 59.1337 44.5301 59.1337 46.017C59.1337 47.5039 60.3335 48.7093 61.8136 48.7093C62.439 48.7325 63.0374 48.452 63.4215 47.9555V48.5801H64.4935V46.0278ZM66.3533 47.8532C66.423 47.8523 66.4922 47.8651 66.557 47.8908C66.6185 47.9161 66.6749 47.9526 66.7231 47.9985C66.7702 48.045 66.8084 48.0997 66.8357 48.1601C66.8906 48.2872 66.8906 48.4314 66.8357 48.5585C66.8084 48.6189 66.7702 48.6737 66.7231 48.7201C66.6749 48.766 66.6185 48.8025 66.557 48.8278C66.4928 48.8562 66.4234 48.8709 66.3533 48.8708C66.1459 48.8693 65.958 48.7476 65.8709 48.5585C65.8167 48.4313 65.8167 48.2873 65.8709 48.1601C65.8982 48.0997 65.9364 48.045 65.9835 47.9985C66.0317 47.9526 66.0881 47.9161 66.1496 47.8908C66.2194 47.8629 66.2943 47.8501 66.3694 47.8532H66.3533ZM66.3533 48.7632C66.4068 48.7635 66.4598 48.7525 66.5087 48.7308C66.5549 48.7102 66.5967 48.6809 66.632 48.6447C66.771 48.4924 66.771 48.2586 66.632 48.1062C66.5968 48.0699 66.5549 48.0406 66.5087 48.0201C66.4597 47.9986 66.4068 47.9876 66.3533 47.9878C66.2999 47.9881 66.247 47.999 66.1979 48.0201C66.1497 48.0399 66.106 48.0692 66.0692 48.1062C65.9303 48.2586 65.9303 48.4924 66.0692 48.6447C66.1061 48.6816 66.1498 48.7109 66.1979 48.7308C66.252 48.7543 66.3105 48.7653 66.3694 48.7632H66.3533ZM66.3855 48.1224C66.4355 48.1199 66.4848 48.1352 66.5248 48.1655C66.5581 48.1931 66.5761 48.2352 66.5731 48.2785C66.5746 48.3147 66.561 48.3499 66.5355 48.3755C66.5045 48.4038 66.4648 48.4209 66.423 48.4239L66.5784 48.6016H66.4551L66.3104 48.4239H66.2622V48.6016H66.1604V48.1278L66.3855 48.1224ZM66.2676 48.2139V48.3432H66.3855C66.4065 48.3494 66.4288 48.3494 66.4498 48.3432C66.4574 48.3279 66.4574 48.3099 66.4498 48.2947C66.4574 48.2794 66.4574 48.2615 66.4498 48.2462C66.4288 48.2399 66.4065 48.2399 66.3855 48.2462L66.2676 48.2139ZM60.3718 46.0278C60.4213 45.1827 61.1342 44.5325 61.9762 44.5643C62.8182 44.596 63.4805 45.2981 63.4669 46.1445C63.4532 46.9909 62.7687 47.6711 61.9261 47.6755C61.4971 47.6809 61.0853 47.5061 60.7901 47.1932C60.495 46.8804 60.3433 46.4579 60.3718 46.0278ZM22.7299 46.0278V43.4539H21.6151V44.0785C21.231 43.5821 20.6326 43.3015 20.0071 43.3247C18.527 43.3247 17.3272 44.5301 17.3272 46.017C17.3272 47.5039 18.527 48.7093 20.0071 48.7093C20.6326 48.7325 21.231 48.452 21.6151 47.9555V48.5801H22.7299V46.0278ZM18.5814 46.0278C18.631 45.1827 19.3438 44.5325 20.1858 44.5643C21.0278 44.596 21.6901 45.2981 21.6765 46.1445C21.6629 46.9909 20.9783 47.6711 20.1357 47.6755C19.7049 47.684 19.2902 47.5105 18.9927 47.1973C18.6952 46.884 18.5421 46.4598 18.5707 46.0278H18.5814Z" fill="white"/>
<path d="M65.6779 31.7382V30.8984H65.9298V30.7246H65.292V30.8984H65.5653V31.7382H65.6779ZM66.916 31.7382V30.7246H66.7231L66.4979 31.4486L66.2728 30.7246H66.1013V31.7382H66.2407V30.978L66.4497 31.6368H66.5944L66.8035 30.978V31.7454L66.916 31.7382Z" fill="white"/>
<path d="M34.7754 35.1717C34.9276 35.2999 35.0904 35.428 35.2505 35.5536C32.1609 37.6016 28.4517 38.7917 24.4696 38.7917C13.715 38.7943 5 30.1106 5 19.3971C5 8.68634 13.715 0 24.467 0C28.4518 0 32.1609 1.1927 35.2426 3.23809C35.0851 3.37148 34.9276 3.49441 34.8095 3.63042C30.2 7.59826 27.5619 13.3499 27.5619 19.3971C27.5619 25.4417 30.1895 31.1934 34.7754 35.1717ZM48.533 0C44.543 0 40.8391 1.1927 37.7574 3.23809C37.9149 3.37148 38.0724 3.49441 38.1905 3.63042C42.8 7.59826 45.4381 13.3499 45.4381 19.3971C45.4381 25.4391 42.8105 31.1856 38.2246 35.1717C38.0724 35.2999 37.9096 35.428 37.7495 35.5536C40.8391 37.6016 44.543 38.7917 48.5304 38.7917C59.285 38.7943 68 30.1106 68 19.3971C68 8.68896 59.285 0 48.533 0ZM36.5 4.15877C36.248 4.35494 36.0039 4.55111 35.765 4.76297C31.6595 8.31754 29.0686 13.5513 29.0686 19.3971C29.0686 25.2456 31.6595 30.4767 35.765 34.0313C36.0012 34.2406 36.2506 34.4446 36.5 34.6381C36.752 34.4446 36.9961 34.2406 37.235 34.0313C41.3379 30.4767 43.9314 25.2456 43.9314 19.3971C43.9314 13.5513 41.3405 8.31754 37.235 4.76297C36.9988 4.55372 36.752 4.35494 36.5 4.15877Z" fill="white"/>
</svg>
