<svg width="24" height="18" viewBox="0 0 24 18" fill="none" xmlns="http://www.w3.org/2000/svg">
<path d="M23.9995 8.98128C23.9984 8.95507 23.9953 8.93421 23.9934 8.9203L23.9921 8.91094L23.9913 8.90292L23.9897 8.89516C23.9692 8.78471 23.9157 8.68361 23.8366 8.60551L15.5168 0.161276C15.4117 0.054028 15.2704 -0.000263798 15.1324 3.62914e-06C14.9945 -0.000263846 14.8538 0.054028 14.7484 0.161008C14.6433 0.268256 14.589 0.410808 14.5893 0.550952C14.589 0.691097 14.6425 0.833381 14.7479 0.940362L22.1464 8.44905L0.540738 8.44905C0.242962 8.45092 0.00131646 8.69511 -1.57314e-06 8.99733C-1.62641e-06 9.30195 0.241118 9.55042 0.540737 9.55122L22.149 9.55122L14.7482 17.0591C14.643 17.1664 14.5892 17.3089 14.5895 17.4488C14.5892 17.5889 14.6427 17.7315 14.7482 17.8385L14.7492 17.8395C14.8546 17.9457 14.9948 18.0003 15.1326 18C15.2707 18 15.4109 17.946 15.5163 17.8395L15.5171 17.8387L23.8456 9.38781C23.9436 9.28618 23.9992 9.14951 23.9997 9.00696L24 9.00482L24 9.00268L24 8.99947L24 8.99091L23.9995 8.98128Z" fill="white"/>
</svg>
