<svg width="24" height="19" viewBox="0 0 24 19" fill="none" xmlns="http://www.w3.org/2000/svg">
<path d="M0.000527213 9.51872C0.00158197 9.54493 0.00474436 9.56579 0.00658876 9.5797L0.00790865 9.58906L0.00869447 9.59708L0.0102814 9.60484C0.030835 9.7153 0.0843285 9.81639 0.163384 9.89449L8.48317 18.3387C8.58831 18.446 8.72956 18.5003 8.86765 18.5C9.00547 18.5003 9.14618 18.446 9.25159 18.339C9.35673 18.2317 9.41101 18.0892 9.41075 17.949C9.41101 17.8089 9.35752 17.6666 9.25211 17.5596L1.85359 10.0509L23.4593 10.0509C23.757 10.0491 23.9987 9.80489 24 9.50267C24 9.19805 23.7589 8.94958 23.4593 8.94878L1.85095 8.94878L9.25185 1.44089C9.35699 1.33364 9.41075 1.19109 9.41049 1.05121C9.41075 0.911069 9.35725 0.768519 9.25185 0.661538L9.2508 0.660468C9.14539 0.554289 9.0052 0.499734 8.86738 0.500001C8.7293 0.500001 8.5891 0.554022 8.4837 0.660468L8.4829 0.661273L0.154424 9.11219C0.0563954 9.21382 0.000786628 9.35049 0.000260187 9.49304L7.87226e-07 9.49518L7.87039e-07 9.49732L7.86758e-07 9.50053L7.8601e-07 9.50909L0.000527213 9.51872Z" fill="black"/>
</svg>
