<svg width="24" height="19" viewBox="0 0 24 19" fill="none" xmlns="http://www.w3.org/2000/svg">
<path d="M23.9995 9.48128C23.9984 9.45507 23.9953 9.43421 23.9934 9.4203L23.9921 9.41094L23.9913 9.40292L23.9897 9.39516C23.9692 9.2847 23.9157 9.18361 23.8366 9.10551L15.5168 0.661273C15.4117 0.554025 15.2704 0.499734 15.1324 0.500001C14.9945 0.499734 14.8538 0.554025 14.7484 0.661006C14.6433 0.768254 14.589 0.910805 14.5893 1.05095C14.589 1.19109 14.6425 1.33338 14.7479 1.44036L22.1464 8.94905H0.540739C0.242964 8.95092 0.00131798 9.19511 0 9.49733C0 9.80195 0.241119 10.0504 0.540739 10.0512H22.1491L14.7482 17.5591C14.643 17.6664 14.5892 17.8089 14.5895 17.9488C14.5892 18.0889 14.6427 18.2315 14.7482 18.3385L14.7492 18.3395C14.8546 18.4457 14.9948 18.5003 15.1326 18.5C15.2707 18.5 15.4109 18.446 15.5163 18.3395L15.5171 18.3387L23.8456 9.88781C23.9436 9.78618 23.9992 9.64951 23.9997 9.50696L24 9.50482V9.50267V9.49946V9.49091L23.9995 9.48128Z" fill="black"/>
</svg>
