<svg width="24" height="18" viewBox="0 0 24 18" fill="none" xmlns="http://www.w3.org/2000/svg">
<path d="M0.000650854 9.01835C0.00170561 9.04456 0.00486799 9.06542 0.00671239 9.07933L0.00803227 9.08869L0.0088181 9.09671L0.010405 9.10447C0.0309586 9.21493 0.084452 9.31602 0.163508 9.39412L8.48329 17.8384C8.58843 17.9456 8.72968 17.9999 8.86777 17.9996C9.00559 17.9999 9.14631 17.9456 9.25171 17.8386C9.35686 17.7314 9.41113 17.5888 9.41087 17.4487C9.41113 17.3085 9.35764 17.1663 9.25224 17.0593L1.85371 9.55058L23.4594 9.55058C23.7572 9.54871 23.9988 9.30453 24.0001 9.00231C24.0001 8.69768 23.759 8.44922 23.4594 8.44842L1.85107 8.44841L9.25197 0.940521C9.35712 0.833273 9.41088 0.690722 9.41061 0.550844C9.41088 0.4107 9.35738 0.26815 9.25197 0.161169L9.25092 0.160099C9.14551 0.0539207 9.00533 -0.000635265 8.86751 -0.000368272C8.72942 -0.000368309 8.58923 0.0536535 8.48382 0.160099L8.48303 0.160904L0.154547 8.61182C0.0565191 8.71345 0.000910298 8.85012 0.000383832 8.99267L0.000124432 8.99481L0.000124431 8.99695L0.000124431 9.00016L0.000124428 9.00872L0.000650854 9.01835Z" fill="white"/>
</svg>
